<svg xmlns="http://www.w3.org/2000/svg" width="400" height="400"><g fill-rule="evenodd"><path fill="#313139" d="M201.778 56.206c-.107.067-.621.123-1.143.125-.522.001-.995.077-1.052.169-.056.092-.464.167-.906.167-.51 0-.878.091-1.01.25-.141.169-.519.25-1.175.25-.812 0-1.017.062-1.272.384-.423.536-1.322.949-2.067.949-.346 0-.742.112-.879.25-.156.156-.565.25-1.086.25-.459 0-.881.075-.938.167-.057.091-.417.167-.802.167-.731.001-1.972.286-2.115.487-.046.064-.526.213-1.067.332-.541.119-1.216.357-1.5.53a8.229 8.229 0 0 1-.766.42c-1.179.501-3.315 1.6-3.583 1.844a4.498 4.498 0 0 1-.805.546c-.259.134-.543.378-.631.542-.088.164-.29.298-.451.298-.715 0-4.193 3.847-4.468 4.943-.065.259-.218.571-.34.693-.403.403-.291 2.242.164 2.669.593.557 1.781.351 1.781-.31 0-.081.311-.432.693-.78a76.618 76.618 0 0 0 1.504-1.421c.447-.435 1.017-.896 1.266-1.025.25-.129.597-.392.771-.585.175-.193.389-.35.476-.35.087 0 .469-.207.849-.459.649-.43.938-.581 2.066-1.076.252-.11.57-.288.708-.394.137-.106.527-.235.866-.287.34-.052.865-.205 1.167-.341.303-.135.738-.285.967-.333.229-.048.717-.172 1.083-.275.367-.103.928-.254 1.247-.336.32-.082.607-.227.639-.324.085-.255.457-.215.698.075.3.361-.037.697-.798.798-.836.11-2.722.598-2.942.76-.097.073-.515.234-.927.358-.412.125-.825.278-.917.341-.091.062-.373.163-.625.223s-.458.183-.458.273c0 .09-.174.163-.387.163-.416 0-2.78 1.431-2.78 1.682 0 .084-.083.152-.186.152-.257 0-2.647 1.814-2.647 2.009 0 .087-.135.157-.3.157-.164 0-.595.307-.958.681-.362.375-1.049.942-1.526 1.261-.477.319-.914.728-.971.908a1.795 1.795 0 0 1-.398.614c-.239.234-2.107 2.927-2.974 4.29-.511.803-1.706 3.408-1.706 3.718 0 .188-.071.385-.156.438-.23.142-.678 1.094-.678 1.439 0 .164-.075.345-.166.401-.092.057-.167.29-.167.518 0 .229-.112.631-.248.895-.137.264-.297 1.142-.356 1.95-.059.809-.201 1.583-.317 1.721-.769.917-.739 14.154.033 14.45.142.055.221.376.221.893 0 2.144 1.294 4.968 2.284 4.986.357.007.787-1.13.586-1.547-.097-.201-.22-.845-.273-1.432-.053-.586-.209-1.291-.347-1.567-.352-.706-.363-6.284-.013-6.831.13-.203.29-.891.356-1.529.066-.638.222-1.262.347-1.387a.88.88 0 0 0 .227-.538c0-.172.075-.358.167-.415.091-.057.166-.319.166-.583 0-.265.075-.527.167-.584.092-.056.167-.278.167-.492 0-.214.112-.432.25-.485a.425.425 0 0 0 .25-.37c0-.152.3-.838.666-1.526.367-.688.667-1.346.667-1.462 0-.117.113-.256.25-.308.138-.053.377-.361.531-.685.334-.7.614-.775.491-.13-.048.252-.137.927-.196 1.5-.06.573-.168 1.042-.24 1.042-.229 0-.669 1.615-.669 2.456 0 .446-.087.897-.194 1.004-.289.289-.412 4.461-.141 4.788.281.338.945.318 1.32-.04.294-.281.398-.641.621-2.164.057-.388.206-.791.332-.895.125-.105.228-.353.228-.553 0-.2.064-.434.142-.521.079-.087.238-.513.355-.947.116-.434.31-.87.43-.97.12-.1.27-.42.334-.712.063-.291.166-.567.23-.613.206-.15 1.009-1.891 1.009-2.19 0-.159.063-.329.14-.376.076-.048.45-.721.831-1.496.381-.776.797-1.516.926-1.644.129-.129.431-.623.672-1.098.24-.474.511-.863.601-.863.09 0 .164-.081.164-.182 0-.1.3-.609.666-1.132.367-.522.667-1.032.667-1.132 0-.1.188-.305.417-.455.229-.15.416-.42.416-.599s.192-.451.426-.604a2.33 2.33 0 0 0 .663-.739c.295-.572 3.874-4.157 4.148-4.157.111 0 .417-.225.68-.5.263-.275.547-.5.63-.5.083 0 .578-.3 1.101-.666.522-.367 1.028-.667 1.122-.667.095 0 .348-.187.564-.417.215-.229.48-.416.589-.416.109 0 .781-.3 1.494-.667.713-.367 1.401-.667 1.528-.667.128 0 .276-.112.328-.25.053-.137.298-.25.545-.25.247 0 .52-.064.607-.142.087-.078.515-.238.95-.355.436-.117.792-.278.792-.358 0-.079.281-.145.625-.146 1.271-.003 2.375-.207 2.375-.439 0-.261 1.748-.332 1.906-.077.096.155.875.302 2.427.457.505.051 1.029.188 1.167.305.137.117.54.265.896.329.355.064.767.177.916.251.626.311 1.545.675 1.704.675.094 0 .636.216 1.203.48.567.263 1.297.597 1.623.742.326.144.731.416.901.604.17.187.449.341.621.341s.357.115.411.256c.054.141.332.377.617.524.285.148.82.557 1.188.909.369.352.801.642.962.643.16.001.291.118.291.261 0 .143.334.589.742.991.407.402.942 1.035 1.189 1.407.246.371.512.676.591.676.08 0 .145.11.145.245 0 .3.701 1.816.875 1.894.069.03.125.269.125.531s.075.523.167.58c.091.056.166.282.166.501 0 .219.099.459.219.532.121.073.35.556.51 1.073.16.517.396 1.079.526 1.25.129.171.237.475.24.675.003.201.08.412.172.469.092.056.167.239.167.406a.76.76 0 0 0 .25.51c.137.114.25.386.25.604 0 .218.075.396.166.396.209 0 .224 2.559.019 2.961-.43.838-1.019 2.208-1.019 2.368 0 .101-.105.349-.233.552-.584.924-.767 2.649-.767 7.248v4.479l.682.446c.375.246.814.446.977.446.333 0 1.198.78 1.883 1.698.426.57.626 1.469.327 1.469-.071 0-.353.412-.625.916-.271.504-.55.916-.618.917-.068 0-.287.348-.487.773-.2.425-.538.961-.751 1.191-.213.23-.388.479-.388.552 0 .074-.225.468-.5.875-.275.408-.5.797-.5.866 0 .212-4.03 4.131-5.056 4.916-.536.409-1.286.987-1.667 1.285-.381.298-.843.608-1.027.691-.183.082-.671.419-1.083.749-.412.329-.845.6-.962.601-.116.001-.491.172-.833.38a12.27 12.27 0 0 1-1.872.951 5.673 5.673 0 0 0-.666.322c-.514.315-2.185 1.015-2.422 1.015-.135 0-.245.065-.245.145 0 .08-.309.195-.688.256-.378.06-.846.199-1.041.308-.506.283-1.763.608-2.386.617-.293.004-.578.082-.635.174-.057.092-.395.167-.752.167-.443 0-.7.092-.811.29-.245.438-12.302.427-12.547-.011-.105-.187-.371-.279-.805-.279-.357 0-.689-.066-.739-.146-.049-.08-.485-.191-.968-.246-1.438-.163-2.03-.303-2.307-.544-.144-.126-.613-.277-1.042-.336-.428-.059-.779-.172-.779-.251 0-.079-.12-.144-.266-.144-.146 0-.465-.102-.708-.228-.244-.125-.93-.472-1.526-.771a17.65 17.65 0 0 1-1.888-1.115c-1.667-1.183-2.832-.471-1.881 1.15.381.649 2.28 2.631 2.52 2.631.056 0 .542.3 1.082.666.54.367 1.073.667 1.184.667.111 0 .447.188.748.417.3.229.666.416.812.416.147 0 .313.132.37.292.057.16.215.421.351.58.324.377-.296.945-1.048.961-.275.006-.646.121-.824.256-.177.135-.531.245-.785.245-.456 0-2.141.588-2.306.805-.145.19-.819.528-1.054.528-.122 0-.399.188-.614.417-.216.229-.478.416-.584.416-.278 0-3.916 3.654-3.916 3.933 0 .129-.065.234-.143.234-.145 0-2.289 2.755-2.71 3.482a5.972 5.972 0 0 1-.606.816c-.206.23-.375.506-.375.614 0 .108-.187.373-.416.588-.229.215-.417.482-.417.592 0 .11-.111.292-.246.405-.136.112-.444.609-.686 1.104-.242.494-.501.899-.575.899-.073 0-.225.281-.336.625-.11.344-.344.762-.519.929-.175.168-.362.524-.416.792-.053.268-.163.487-.243.487-.08 0-.146.146-.146.324 0 .178-.069.366-.153.418-.172.106-1.68 3.166-1.68 3.409 0 .085-.065.18-.145.21-.177.068-1.022 1.893-1.022 2.207 0 .124-.112.318-.25.432-.137.114-.25.284-.25.377 0 .094-.16.516-.356.938a29.91 29.91 0 0 0-.519 1.185c-.09.23-.23.547-.311.706-.081.16-.147.409-.147.554 0 .145-.113.377-.25.514a.943.943 0 0 0-.25.573c0 .178-.144.642-.319 1.03-.176.389-.41 1.007-.521 1.373-.11.367-.267.797-.347.956-.081.16-.149.535-.152.834-.003.299-.115.689-.25.867a1.39 1.39 0 0 0-.244.711c0 .213-.069.517-.152.676-.083.159-.232.87-.331 1.58-.098.709-.247 1.422-.33 1.583-.222.43-.521 2.196-.521 3.075 0 .473-.094.839-.25.968-.177.148-.25.537-.25 1.344 0 .625-.075 1.183-.166 1.24-.092.056-.167.474-.167.929 0 .454-.09 1.113-.199 1.464l-.199.638-5.254.112c-3.062.065-5.322.18-5.417.276-.091.09-.369.164-.619.164s-.567.112-.705.25c-.162.162-.574.25-1.169.25-.505 0-.965.075-1.021.167-.057.091-.334.166-.616.166-.627 0-1.648.271-2.591.688-.388.172-.794.312-.902.312-.313 0-1.475.551-1.475.699 0 .074-.22.135-.49.135-.269 0-.536.075-.593.166-.057.092-.231.167-.386.167-.156 0-.377.15-.492.333-.154.247-.389.334-.899.334-.456 0-.867.128-1.207.378-.533.391-.968.611-1.879.953-.291.11-.659.342-.817.517-.159.175-.408.324-.554.331-.146.006-.491.155-.766.331-.275.176-.612.37-.75.433-.421.19-1.747 1.112-1.806 1.255-.03.074-.143.136-.25.138-.107.001-.532.304-.944.673-.413.369-.973.791-1.245.937-.693.373-2.422 2.137-2.422 2.471 0 .321-.137.414 2.353-1.6 5.255-4.251 13.222-8.094 19.874-9.586 3.932-.882 12.324-1.456 12.518-.856.037.114.111 2.758.164 5.875.162 9.46.179 9.533 2.841 11.692 4.393 3.561 8.75 3.636 8.75.149 0-.583.11-.924.433-1.348 1.121-1.469 1.63-5.243.707-5.243-.077 0-.141-.244-.142-.542-.002-.298-.153-1.251-.336-2.119-.582-2.759-.578-5.396.01-5.759.511-.316 1.745.676 1.871 1.503.314 2.064 1.296 5.634 2.201 8 .328.855.41 1.531.569 4.667.186 3.667.472 7.489.935 12.5.135 1.466.323 3.641.417 4.833.094 1.192.207 2.429.252 2.75.044.321.195 2.083.335 3.917.254 3.323.486 5.303 1.085 9.25.174 1.146.368 2.945.43 4l.113 1.916-.931-1.166a140.47 140.47 0 0 1-2.64-3.494c-8.329-11.349-17.149-19.844-25.559-24.618-2.765-1.57-2.784-1.498-.063.242 6.361 4.067 12.55 10.003 18.688 17.927 1.139 1.47 1.217 1.777.25.988-9.894-8.079-24.043-11.366-35.625-8.276-2.42.645-7.166 2.563-7.166 2.896 0 .057.056.071.125.031 6.752-3.978 18.717-4.652 27.625-1.557 8.341 2.899 17.695 9.788 23.016 16.951 1.041 1.402 1.051 1.439.442 1.687-11.357 4.628-22.133 15.97-23.109 24.322l-.105.901.269-.667c2.548-6.317 4.969-9.884 10.033-14.777 8.579-8.291 18.591-11.94 30.664-11.175 3.589.228 9.523 1.26 10.417 1.813.078.048-.471.464-1.219.924-2.435 1.498-7.704 5.808-7.433 6.079.041.041.879-.523 1.863-1.254 12.621-9.371 28.154-10.297 43.275-2.581 5.44 2.776 7.99 4.822 12.793 10.264 2.674 3.03 2.386 2.135-.47-1.46-5.867-7.383-13.025-12.224-21.311-14.409-.928-.245-.923-.259.583-1.694 5.08-4.839 12.563-7.274 18.43-5.996.534.117 1.003.18 1.042.142.038-.039-.737-.247-1.722-.462-4.181-.914-9.992-.306-13.338 1.396-1.944.989-1.058.186 1.609-1.458 13.535-8.345 32.803-9.77 47.58-3.521.354.149.675.24.714.201.098-.098-3.027-1.384-5.023-2.067-11.405-3.897-25.144-3.862-36.178.092-4.691 1.681-8.785 3.846-13.249 7.005-.444.314-.416.098.188-1.433 4.518-11.452 17.748-24.544 29.695-29.385 1.278-.517 1.083-.641-.243-.153-13.602 5.007-28.299 19.205-32.474 31.372-.564 1.643-.6 1.387-.836-5.88-.288-8.889-.018-15.486.932-22.731.284-2.168.013-1.867 2.193-2.433 7.599-1.97 9.883-4.706 12.084-14.475l.388-1.722 1-.876c13.987-12.257 34.567-14.482 51.044-5.519 2.887 1.571 3.52 2.06 10.687 8.272 2.052 1.778 3.751 4.047 6.104 8.15 3.732 6.508 3.42 7.426-1.92 5.654-2.804-.931-3.357-.845-1.599.249 6.347 3.949 14.464 12.088 16.718 16.765a57.928 57.928 0 0 0 2.143 3.934c3.51 5.807 5.072 11.762 5.348 20.399.172 5.356-.611 12.959-1.603 15.57-.092.24-.197.765-.235 1.168-.347 3.719-4.961 10.921-10.687 16.686-10.446 10.515-19.5 14.975-30.334 14.942-4.895-.014-11.683-1.358-14.633-2.897-.342-.178.397-1.718 1.464-3.052 2.936-3.671 5.13-7.475 6.347-11 .253-.734.549-1.446.657-1.584.219-.277.814-2.324.706-2.431-.037-.037-.549.725-1.138 1.695-6.775 11.168-13.336 16.715-23.903 20.211-2.984.987-8.158 2.53-9.168 2.734l-1.16.235.664.11c3.174.524 10.416-.436 14.134-1.872.902-.349 1.361-.091.52.293-.235.107-.928.597-1.542 1.089-6.91 5.547-21.427 11.572-32.198 13.363-8.523 1.418-19.973.496-26.916-2.167a29.596 29.596 0 0 0-1.917-.662c-1.161-.332-4.175-1.565-4.917-2.012a41.108 41.108 0 0 0-1.5-.849c-1.346-.722-3.58-2.312-4.791-3.41-.619-.561-1.125-.973-1.125-.917 0 .473 3.811 4.924 4.215 4.924.165 0 2.295 1.78 2.289 1.912-.003.048-.793.496-1.757.994-.964.499-2.086 1.132-2.494 1.407-2.526 1.705-9.214 5.278-11.685 6.243-7.476 2.919-17.041 3.996-23.873 2.688-.703-.134-1.55-.244-1.881-.244-.758 0-4.647-.731-5.648-1.062-.412-.136-1.912-.623-3.333-1.083-6.037-1.952-8.598-3.278-12.005-6.213a172.698 172.698 0 0 0-2.231-1.892c-1.501-1.238-5.2-6.048-7.243-9.417-1.169-1.93 1.953 5.664 3.435 8.354.032.057-.077.144-.241.194-.164.05-.711.252-1.215.449-7.738 3.022-19.575 3.731-26.5 1.587-3.743-1.159-9.317-4.111-11.642-6.165a26.44 26.44 0 0 0-1.608-1.289c-2.097-1.524-5.396-5.748-6.553-8.391-2.101-4.799-3.44-13.909-2.361-16.066.071-.141.293-1.142.493-2.224 1.123-6.056 3.664-10.931 7.171-13.758.391-.315.326-.31-1.043.083-2.033.582-2.833 1.069-4.411 2.683-1.586 1.622-1.384 1.652-2.859-.425-1.977-2.783-2.136-3.205-3.119-8.282-1.982-10.241-1.863-15.429.536-23.25 3.154-10.285 8.798-18.479 16.813-24.412 8.135-6.022 13.737-7.604 27.116-7.659 3.273-.013 5.994-.067 6.047-.12.102-.102-1.563-1.416-2.015-1.589-.232-.089-.253-.007-.153.588.132.778-.188 1.078-.765.718-.382-.238-3.585-.261-3.73-.026-.065.104-1.67.167-4.265.167-3.546 0-4.177.037-4.258.25-.073.188-.388.252-1.287.258-1.057.008-1.939.1-4.161.433-.351.053-.677.2-.726.327-.049.128-.318.232-.601.232-.511 0-1.444.243-1.992.52a1.585 1.585 0 0 1-.604.146.751.751 0 0 0-.509.233c-.106.128-.471.284-.812.347-.34.063-.857.296-1.149.518-.292.221-.648.402-.792.402-.143 0-.261.075-.261.167 0 .092-.141.167-.313.167-.172 0-.413.121-.536.268-.122.148-.536.429-.918.625-.383.196-1.25.776-1.927 1.289-.678.512-1.317.962-1.42 1-.184.066-.607.419-3.201 2.667-1.468 1.273-5.018 4.808-5.018 4.997 0 .07-.374.527-.83 1.016-.456.488-.962 1.145-1.125 1.46-.162.315-.408.698-.545.85-.655.726-.93 1.163-1.828 2.9l-1.133 2.19c-.092.177-.27.546-.395.821-.125.275-.321.599-.436.72-.115.121-.208.294-.208.384 0 .091-.154.516-.343.947-.188.43-.422.97-.519 1.199-.098.229-.243.547-.324.706a1.43 1.43 0 0 0-.148.528c0 .132-.125.489-.278.794-.496.989-.526 1.079-.642 1.906-.063.449-.208.891-.321.983-.223.181-.402.787-.541 1.833-.049.367-.169.766-.268.889-.099.122-.244.609-.322 1.083l-.331 2.028c-.371 2.299-.193 13.721.22 14.158.083.087.15.547.15 1.022 0 .563.087.934.25 1.07.16.133.25.502.25 1.03 0 .961.293 2.279.585 2.637.113.137.246.828.297 1.535.071 1.003.18 1.406.494 1.833.222.302.53.826.685 1.166.155.34.357.665.449.722.092.057.324.436.515.844.424.902 1.698 2.066 2.261 2.066.405 0 .563-.136 2.079-1.802.726-.797 1.914-1.641 2.079-1.476.039.039-.157.299-.437.579-.279.279-.507.671-.507.871 0 .2-.174.5-.386.667-.212.167-.487.609-.61.983-.123.373-.281.678-.351.678-.07 0-.219.282-.331.625-.112.344-.255.663-.318.709-.221.161-.637 1.155-.85 2.031-.119.487-.312 1.001-.429 1.142-.118.142-.265.704-.327 1.25-.063.546-.215 1.141-.339 1.322-.124.181-.226.608-.226.949 0 .34-.075.666-.166.722-.092.057-.167.469-.167.917 0 .448-.075.86-.167.917-.213.131-.226 7.954-.014 8.175.084.087.189.608.232 1.158.096 1.2.341 2.332.57 2.622.092.116.212.615.267 1.107.056.493.204 1.056.33 1.25.126.195.274.589.33.875.136.695.813 2.229.983 2.229.075 0 .136.119.136.265 0 .145.209.576.464.958s.537.816.625.964c.381.64 1.601 2.147 1.738 2.147.083 0 .198.15.256.333.13.41 2.969 3.333 3.236 3.333.107 0 .506.3.887.667.382.367.816.667.966.667.149 0 .364.168.478.375.205.372 1.39 1.291 1.665 1.291.079 0 .237.113.351.25.114.138.349.25.521.25.172 0 .313.073.313.162 0 .134 1.665 1.005 1.921 1.005.043 0 .229.15.412.333.183.184.55.334.816.334.274 0 .523.107.578.25.052.137.192.251.309.253.118.002.401.151.63.33.23.179.571.328.759.33.188.002.413.072.5.157.222.216 2.153.845 2.611.852.209.003.526.115.704.25.178.134.557.244.842.244.285 0 .589.07.676.155.528.517 13.441.513 13.983-.004.087-.083.847-.151 1.688-.151 1.157 0 1.58-.061 1.737-.25.121-.145.495-.253.896-.257a8.052 8.052 0 0 0 1.396-.167c.39-.087 1.014-.225 1.388-.306.374-.08.764-.23.867-.333.103-.103.345-.187.539-.187.193 0 .662-.15 1.042-.333.379-.183.828-.333.998-.333a.804.804 0 0 0 .494-.186c.102-.103.361-.275.575-.383.334-.169.388-.319.382-1.064-.004-.477.033-.866.083-.865.19.006.433.265.659.703.129.251.355.494.501.54.147.047.341.253.432.459.091.205.32.45.51.543.189.093.677.488 1.083.876.406.389.814.708.905.71.092.002.757.565 1.478 1.252.721.686 1.396 1.249 1.5 1.251.104.001.366.189.581.417.216.227.474.413.573.413.099 0 .335.138.524.307.189.168.607.407.928.531.32.124.863.399 1.205.61.342.212.742.386.889.386.222 0 1.514.552 2.778 1.188.16.08.422.147.584.15.161.003.439.116.617.25.178.135.482.245.675.245.194 0 .424.072.512.161.089.088.61.21 1.159.272.548.061 1.111.209 1.249.329.139.12.627.309 1.084.419.457.111 1.067.303 1.356.427.289.124.78.225 1.092.225.311 0 .638.07.725.155.087.085.758.195 1.491.244 2.372.158 3.307.298 3.691.549.511.335 11.059.389 12.226.064a16.85 16.85 0 0 1 1.833-.359c2.082-.286 4.302-.755 4.566-.964.101-.081.409-.189.684-.241 1.113-.21 1.506-.339 1.623-.536.067-.114.48-.257.916-.32.983-.14 1.878-.425 2.224-.709.145-.119.384-.216.532-.216.148 0 .312-.069.364-.154.052-.084.314-.202.582-.261.267-.058.569-.206.67-.328.102-.122.437-.269.745-.327.309-.058.653-.216.765-.351.112-.135.282-.246.378-.246.096 0 .293-.1.438-.222.145-.123.526-.322.847-.444.32-.122.713-.332.872-.468.158-.135.587-.404.952-.597 1.753-.93 2.41-1.318 2.727-1.614.19-.177.481-.321.647-.321.166 0 .302-.075.302-.167 0-.092.088-.167.195-.167.107 0 .319-.112.47-.248.151-.137 1.02-.628 1.93-1.091 1.48-.754 2.738-1.754 2.738-2.179 0-.264.726-.15 1.75.274.55.228 1.299.464 1.665.524.365.06.764.209.886.331a.886.886 0 0 0 .546.223c.313 0 .476.06 1.276.474.205.106.508.192.675.192.166 0 .373.068.46.151.209.199 1.973.691 2.86.797.386.047.789.19.895.319.118.141.512.233.998.233.441 0 .849.075.906.167.056.092.544.167 1.083.167.539 0 1.027.075 1.083.166.057.092.589.167 1.183.167.694 0 1.22.092 1.473.258.592.388 12.769.407 13.613.022.31-.142 1.202-.298 1.981-.347 1.859-.116 2.88-.266 3.075-.45.087-.082.551-.15 1.03-.15.504 0 .965-.093 1.094-.222.122-.122.661-.274 1.196-.337.536-.063 1.111-.188 1.279-.278.167-.089.483-.163.7-.163.218 0 .542-.11.719-.244.178-.135.494-.247.701-.25.208-.003.508-.071.667-.152.43-.217 1.443-.52 1.739-.52.143 0 .345-.103.45-.23.104-.126.505-.279.891-.341.385-.061.815-.207.955-.324.14-.117.592-.314 1.004-.438.413-.124.822-.287.909-.363.087-.076.288-.138.446-.138a.833.833 0 0 0 .508-.22c.122-.12.371-.266.554-.322.854-.262 1.611-.586 1.789-.763.107-.107.29-.195.406-.195.247 0 1.353-.595 1.735-.933.145-.128.371-.233.502-.233.132 0 .576-.187.987-.415a23.14 23.14 0 0 1 1.331-.68c.321-.147.696-.334.833-.416a22.65 22.65 0 0 1 1.125-.567c.482-.23.875-.494.875-.587 0-.093.099-.169.219-.169.354 0 1.948-.818 1.948-1 0-.092.138-.166.306-.166.277 0 1.951-1.085 2.498-1.619.121-.118.271-.215.333-.215.48-.003 2.196-1.992 2.196-2.545 0-.331.075-.648.167-.705.092-.056.167-.319.167-.583 0-.264.077-.528.171-.586a.34.34 0 0 0 .147-.302c-.049-.394.019-.612.191-.612.097 0 .605-.281 1.129-.625 1.322-.867 1.531-.992 2.195-1.32.321-.158.926-.573 1.344-.921.418-.349.82-.634.893-.634.135 0 .667-.446 1.344-1.125.206-.206.442-.375.526-.375.084 0 .34-.206.57-.458.23-.252.64-.66.912-.907.272-.246.577-.546.679-.666.101-.121.364-.372.583-.559.22-.187.612-.595.873-.906.379-.453.529-.532.75-.393.315.197.474.889.204.889-.098 0-.178.072-.178.161 0 .088-.228.482-.506.875a52.908 52.908 0 0 0-.941 1.381c-.239.366-.537.727-.663.801-.268.158-.96 1.496-1.123 2.173-.159.659.555 1.609 1.208 1.609.252 0 .53.068.617.151.201.192 2.417.849 2.864.849a.8.8 0 0 1 .544.25c.114.137.446.25.737.25s.601.068.688.151c.087.084.533.192.992.241l1.916.205c.595.064 1.247.224 1.449.356.473.31 8.02.253 8.401-.064.129-.106.796-.233 1.484-.281 1.676-.116 2.649-.278 2.761-.459.05-.082.4-.149.777-.149s.804-.099.949-.219c.144-.12.675-.317 1.179-.437s1.179-.35 1.5-.512c.321-.162.91-.393 1.31-.513.399-.119.763-.315.809-.435.046-.119.221-.217.389-.217s.352-.075.409-.167c.057-.092.237-.167.402-.167.164 0 .554-.184.865-.409a7.992 7.992 0 0 1 1.11-.659c.3-.138.589-.366.643-.507a.455.455 0 0 1 .373-.269c.15-.006.611-.268 1.024-.583.412-.314.918-.645 1.125-.735.206-.089.375-.226.375-.303 0-.077.303-.31.673-.519.371-.208.849-.54 1.063-.739.933-.864 1.236-1.11 1.37-1.111.079 0 .369-.209.644-.463a11.93 11.93 0 0 1 1.041-.844c.298-.21.542-.489.542-.62s.077-.239.171-.239c.467 0 7.389-7.016 7.679-7.784.063-.165.309-.481.548-.703.24-.222.435-.476.435-.564 0-.088.181-.319.402-.513.221-.194.54-.582.708-.863.616-1.025 1.038-1.662 1.265-1.906.127-.138.436-.663.686-1.167.249-.504.562-1.104.694-1.333.132-.229.242-.543.243-.698.001-.156.073-.326.158-.379.23-.141.678-1.094.678-1.439 0-.164.075-.344.166-.401.092-.056.167-.242.167-.412 0-.171.085-.338.188-.373.172-.057.302-.584.585-2.381.058-.367.164-.742.235-.834.071-.091.217-.804.325-1.583.108-.779.264-1.547.348-1.706.084-.159.152-.913.152-1.675 0-.886.075-1.461.209-1.594.16-.16.208-1.801.208-7.061 0-5.334-.046-6.868-.208-6.922-.147-.049-.209-.53-.209-1.629 0-.858-.065-1.6-.144-1.649-.08-.05-.198-.626-.263-1.281-.064-.656-.194-1.389-.288-1.629-.262-.673-.638-2.165-.638-2.534 0-.182-.113-.374-.25-.426-.138-.053-.25-.271-.25-.485 0-.214-.075-.436-.167-.492-.091-.057-.17-.268-.174-.469-.005-.2-.151-.627-.325-.948a13.957 13.957 0 0 1-.491-1 5.616 5.616 0 0 0-.336-.667c-.088-.137-.363-.65-.611-1.14-.248-.49-.551-.929-.673-.977a.364.364 0 0 1-.223-.312c0-.234-.489-1.172-.992-1.904a4.007 4.007 0 0 1-.392-.708c-.058-.161-.183-.292-.277-.292-.095 0-.172-.225-.172-.5s-.075-.5-.167-.5c-.092 0-.167-.139-.167-.308 0-.17-.223-.639-.497-1.042-.273-.403-.498-.817-.5-.918-.001-.102-.19-.326-.419-.498-.229-.172-.417-.408-.417-.524 0-.115-.169-.379-.375-.585a28.82 28.82 0 0 1-1.207-1.375 40.234 40.234 0 0 0-1.875-2.059c-.574-.583-1.043-1.116-1.043-1.186 0-.223-3.291-3.302-3.652-3.417-.191-.061-.348-.172-.348-.248 0-.212-3.298-2.84-3.564-2.84-.184 0-.436-.327-.436-.565 0-.021.678-.005 1.506.034 1.972.095 2.161-.05 2.161-1.652 0-.622-.07-1.174-.156-1.227-.086-.053-.317-.526-.513-1.052-.196-.525-.453-1.067-.572-1.205-.118-.137-.262-.451-.321-.696-.058-.246-.199-.549-.314-.674-.293-.32-.58-.792-.863-1.421-.135-.298-.314-.542-.399-.542-.085 0-.252-.244-.37-.542-.119-.298-.465-.889-.771-1.314-.305-.424-.555-.817-.555-.873 0-.209-1.587-2.221-2.402-3.045-.466-.472-.93-.997-1.031-1.167-.101-.17-.366-.331-.589-.358a.786.786 0 0 1-.566-.414 1.285 1.285 0 0 0-.518-.54c-.195-.096-1.056-.829-1.913-1.628-.856-.799-1.624-1.452-1.705-1.452-.082 0-.448-.3-.815-.667-.367-.367-.759-.667-.871-.667-.113 0-.348-.158-.522-.351-.342-.379-1.938-1.482-2.144-1.482-.069 0-.459-.225-.866-.5-.408-.275-.845-.5-.973-.5-.127 0-.274-.068-.326-.152-.123-.2-1.762-1.015-2.041-1.015-.12 0-.218-.066-.218-.146 0-.164-.552-.401-1.666-.714-.413-.116-.849-.307-.971-.425a.894.894 0 0 0-.543-.215c-.179 0-.454-.066-.614-.147-.359-.182-2.255-.823-3.039-1.026a6.234 6.234 0 0 0-1.278-.156c-.382-.002-.723-.091-.758-.196-.062-.185-.508-.284-3.047-.672-1.648-.252-13.028-.24-14.417.015-.596.109-1.496.24-2 .29-.504.05-1.029.186-1.167.303-.137.116-.679.26-1.205.318-.848.095-1.582.327-2.501.792-.159.08-.466.146-.682.146-.377 0-1.437.438-1.612.666-.046.059-.571.242-1.166.405-.596.163-1.196.389-1.334.501-.137.112-.679.409-1.205.66-.525.251-.998.526-1.051.612-.053.086-.229.156-.39.156-.162 0-.589.223-.949.495-.36.273-.712.498-.781.5-.212.008-2.805 1.762-3.995 2.702-2.279 1.802-3.091 2.568-3.368 3.178-.157.344-.355.625-.44.625-.259 0 .01-4.382.282-4.602.171-.137.231-.661.231-2.032 0-1.051.071-1.891.166-1.949.097-.06.167-.963.167-2.144 0-1.206.072-2.111.175-2.215.315-.315.781-4.945.808-8.028.012-1.338.082-1.952.241-2.111.235-.236.361-1.89.62-8.169.075-1.833.21-4.008.299-4.833.089-.825.168-2.491.176-3.701.008-1.235.096-2.38.201-2.61.149-.327.132-.487-.083-.795-.338-.482-.347-1.04-.02-1.311a.762.762 0 0 0 .25-.509c0-.165.126-.427.281-.582.317-.316.844-1.176.993-1.617.054-.161.158-.292.232-.292.073 0 .306-.281.516-.625.647-1.055 2.279-3.294 2.638-3.619.187-.169.34-.395.34-.503 0-.107.187-.371.416-.586.23-.216.417-.476.417-.578 0-.102.338-.517.75-.922s.75-.801.75-.88c0-.079.094-.244.208-.366.115-.121.434-.493.709-.825.275-.332.751-.883 1.058-1.225.308-.341.85-1.009 1.205-1.484.355-.474.718-.907.806-.962.089-.055.333-.444.543-.864.21-.421.534-.833.718-.916.185-.082.561-.293.836-.469.275-.175.658-.324.85-.33.444-.016 1.4-.488 1.4-.692 0-.084.153-.154.34-.154.309 0 .839-.311 1.705-1 .823-.655 2.789-2.632 2.789-2.805 0-.107.105-.195.235-.195.129 0 .413-.206.631-.458.891-1.032 3.687-3.563 4.265-3.86.34-.176.784-.476.987-.667.202-.192.469-.348.592-.348.124 0 .483-.192.799-.427a8.51 8.51 0 0 1 1.131-.693c.306-.146.596-.367.643-.49.047-.123.215-.224.372-.224.347 0 2.006-1.702 2.398-2.458l.538-1.039c1.34-2.585-.327-5.898-2.483-4.935-.289.13-.731.28-.983.334l-.917.195c-.581.123-1.542.605-1.542.775 0 .07-.135.128-.3.128-.165 0-.371.064-.458.142-.087.079-.517.239-.954.357-.438.117-.836.278-.885.358-.049.079-.38.143-.736.143s-.693.075-.75.167c-.42.679-1.371.011-2.253-1.583-.668-1.207-2.969-3.536-3.953-4-.389-.184-.708-.45-.709-.592-.003-.416 1.56-2.051 2.957-3.093.71-.53 2.085-1.717 3.056-2.639 4.557-4.329 6.653-4.097 6.708.74.024 2.088-.404 2.798-3.82 6.334-2.403 2.487-3.403 3.753-3.403 4.311 0 .354.34.19.546-.263.182-.402 1.684-2.034 4.704-5.113 1.368-1.394 1.922-2.171 2.033-2.853.051-.317.196-.662.322-.767.336-.279.319-2.867-.021-3.149-.141-.116-.25-.48-.25-.829 0-1.263-1.626-2.588-2.504-2.041-.179.112-.468.204-.642.204-.335 0-1.169.384-1.338.615-.055.076-.4.335-.766.577-.367.241-1.53 1.266-2.584 2.277-2.303 2.209-2.409 2.305-2.638 2.385-.098.034-.556.424-1.016.866-.461.443-.905.763-.986.712-.224-.138-.012-2.471.249-2.731.123-.124.225-.403.225-.62 0-.217.065-.435.144-.484.744-.46.532-6.97-.247-7.583-.219-.172-.397-.393-.397-.491 0-.828-2.426-.725-3.224.136-.335.363-.61.712-.61.775 0 .064-.195.536-.435 1.049a61.919 61.919 0 0 0-.648 1.433c-.287.673-.75 2.618-.75 3.153 0 .237-.061.431-.135.431-.135 0-.697 1.146-.7 1.431-.002.083-.227.594-.5 1.134-.274.54-.498 1.084-.498 1.208 0 .125-.078.227-.172.227-.095 0-.226.132-.292.294-.351.864-3.794 4.706-4.217 4.706-.08 0-.296-.333-.481-.74-.186-.407-.413-.787-.505-.843-.091-.057-.167-.239-.167-.404 0-.407-1.967-2.337-2.494-2.446a2.497 2.497 0 0 1-.672-.244 5.595 5.595 0 0 0-.604-.312c-.344-.149-.356-.268-.425-4.157-.059-3.328-.115-4.054-.332-4.304-.17-.195-.297-.792-.364-1.703-.094-1.288-.461-2.7-.803-3.089-.076-.087-.139-.443-.139-.792 0-.348-.075-.633-.167-.633-.091 0-.166-.227-.166-.505 0-.296-.104-.545-.25-.601-.138-.053-.25-.262-.25-.465 0-.5-.493-1.951-.773-2.275-.125-.145-.227-.343-.227-.44 0-.222-.315-.824-.768-1.466-.193-.274-.399-.698-.458-.943-.059-.246-.295-.669-.524-.941-.229-.273-.417-.561-.417-.64 0-.309-1.189-1.891-1.421-1.891-.135 0-.246-.143-.246-.318 0-.329-1.034-1.75-1.862-2.558-.259-.253-.471-.527-.471-.609 0-.225-3.353-3.515-3.582-3.515-.111 0-.606-.404-1.101-.899-.495-.494-1.288-1.113-1.762-1.375-.475-.262-1.042-.632-1.262-.824-.477-.415-.948-.66-4.185-2.183-.353-.166-.878-.43-1.166-.586-.289-.156-.675-.289-.859-.295-.183-.006-.666-.163-1.073-.347-.407-.185-1.269-.416-1.916-.515-.648-.099-1.376-.283-1.62-.411-.243-.127-.82-.231-1.282-.231-.461 0-.879-.064-.927-.143-.172-.278-10.074-.579-10.487-.318m7.925.535c10.527.663 19.938 6.344 26.187 15.808.702 1.063 1.277 1.967 1.277 2.009 0 .042.268.551.596 1.131 2.062 3.649 3.778 9.116 4.228 13.478.1.962.217 2.077.261 2.478.044.4.032 1.472-.028 2.382l-.108 1.654-.85.402c-2.456 1.163-2.641 4.482-.424 7.596.457.641.419.978-.412 3.678-.687 2.234-1.016 3.169-1.929 5.476-1.618 4.086-5.549 10.365-7.685 12.273-2.374 2.12-9.287 5.192-14.149 6.288-4.059.914-7.821 1.648-9.5 1.852l-1.75.213 2.666.019c2.19.015 3.069-.056 4.917-.398 2.788-.516 5.326-1.06 5.568-1.193.1-.055.069.016-.068.159-.604.628-5.632 2.503-8.574 3.198-2.02.477-7.171 1.251-8.436 1.268-.499.006-1.057.082-1.24.169-.216.103.778.13 2.833.078 3.193-.081 4.908-.311 8.084-1.083 2.251-.547 8.977-2.812 9.405-3.166.114-.095.5-.278.859-.407 1.79-.646 7.404-3.54 10.054-5.183 3.846-2.386 7.925-6.067 9.932-8.964 1.176-1.698 1.122-1.674 1.503-.664.246.651 2.424 4.607 2.674 4.857.298.298.174-.3-.26-1.256-1.069-2.351-2.151-6.587-2.289-8.96-.166-2.855-.601-1.725-.5 1.299l.078 2.315-.562.622c-.308.342-.561.671-.561.731 0 .06-.244.376-.542.702-.298.326-.579.687-.625.802-.303.759-3.777 4.299-5.292 5.392-.544.393-1.131.845-1.306 1.006-.175.161-.596.423-.936.583-.34.16-.664.365-.72.455-.056.091-.407.321-.78.511-.374.191-.833.489-1.021.664-.187.175-.527.318-.755.318h-.414l.404-.437c.222-.24.91-.844 1.529-1.34.618-.497 1.125-.985 1.125-1.085 0-.1.182-.341.404-.535.562-.49 2.762-3.565 2.762-3.861 0-.133.072-.242.159-.242.088 0 .291-.281.453-.625.161-.343.465-.811.674-1.04.21-.228.381-.49.381-.583 0-.093.222-.581.493-1.085.272-.504.497-1.079.5-1.278.004-.198.063-.386.132-.416.182-.081.708-1.125.708-1.405 0-.226.065-.383.528-1.276.281-.543.803-2.314.804-2.732.001-.197.114-.401.252-.453.157-.061.25-.316.25-.687 0-.325.068-.721.151-.88.291-.557.682-2.083.682-2.663 0-.51.033-.557.26-.369.326.271.74 1.246.74 1.742 0 .207.11.467.244.578.17.142.26.637.299 1.646l.055 1.443.034-1.559c.057-2.568-.335-3.639-2.215-6.049-3.164-4.058 1.204-7.619 4.657-3.797 1.064 1.178 1.631 2.724 2.419 6.605.653 3.213 1.24 3.939.663.821-.266-1.443-.23-1.477.976-.904 1.374.651 2.734 1.931 3.94 3.707 1.313 1.933 1.504 2.054.925.586-.966-2.452-4.016-5.636-5.732-5.984-.725-.147-.856-1.302-.195-1.735.84-.551 2.791-2.681 3.665-4.003 1.469-2.222 1.984-3.403 3.173-7.271 1.493-4.857 2.778-6.057 4.47-4.175 1.465 1.63 1.487 3.15.117 8.091-.245.883-.381 1.882-.403 2.957-.039 1.898-.036 1.893-.962 1.66-1.726-.435-1.921-.378-.691.201 3.59 1.692 5.849 4.271 6.967 7.958.421 1.387.828 1.928 1.038 1.381.098-.257-.046-1.711-.214-2.148-.063-.165.103-.289.548-.409 2.725-.731 3.577-1.017 5.601-1.875 3.634-1.542 4.704-1.258 4.704 1.248 0 2.763-1.484 4.453-6.375 7.265-1.594.915-2.679 1.836-6.013 5.1-4.039 3.953-4.579 4.304-8.862 5.751-3.47 1.173-4.233 2.021-1.186 1.318 1.026-.236 1.016-.163-.175 1.207-2.375 2.732-7.154 8.905-9.222 11.91-.55.799-2.35 3.26-4 5.468-8.052 10.776-9.913 14.668-11.161 23.342-.425 2.956-.541 4.24-1.086 12.083-.582 8.378-1.011 11.808-2.086 16.667-2.563 11.586-3.141 22.479-2.077 39.145.096 1.501.146 2.758.11 2.793-.035.036-1.032-.048-2.214-.187-5.036-.589-11.341-.015-15.47 1.409-1.43.493-1.355.562-1.763-1.619-.624-3.335-1.777-7.932-2.588-10.322-1.842-5.426-3.121-11.762-3.575-17.711-.101-1.324-.219-2.443-.262-2.486-.25-.25-.328.481-.328 3.075 0 1.597-.052 2.903-.115 2.903-2.293-.001-9.23-3.319-11.574-5.536-.986-.932-1.204-.96-.845-.107.922 2.189 6.538 5.54 11.201 6.684l1.532.375.164 1.334c.148 1.208.12 1.521-.299 3.333-2.66 11.501-3.088 13.735-3.251 16.987l-.113 2.245-.517-.116c-3.154-.707-14.778.294-17.95 1.545-.231.091-.284-.128-.385-1.595-.064-.936-.338-3.283-.607-5.217-.476-3.405-.93-7.784-1.653-15.932-.192-2.155-.458-5.042-.591-6.417-.312-3.213-.732-8.103-.851-9.917l-.093-1.416.882 1.333c.89 1.345 2.953 3.583 3.303 3.583.514 0 .237-.656-1.169-2.772-8.05-12.118-8.438-29.743-1.09-49.498 1.104-2.967 1.134-3.137.326-1.813-3.849 6.3-6.618 17.403-6.837 27.417l-.1 4.583-.552.646c-2.181 2.558-2.55 4.944-1.497 9.687.365 1.648.296 2.763-.224 3.573-.264.413-.704.04-3.132-2.656-2.432-2.701-3.912-4.167-4.206-4.167-.4 0-.114.559.802 1.57l.975 1.076.116 1.552c.142 1.91.508 3.392 1.001 4.052.206.275.421.629.479.787.105.284.287.351 1.49.544 1.752.281 2.61 2.973 1.186 3.72-1.294.678-6.179-1.768-7.822-3.918-.833-1.089-1.33-12.51-.753-17.299.898-7.454 2.808-15.047 5.039-20.033.173-.384.313-.74.313-.79 0-.049.999-2.135 2.219-4.634 6.637-13.594 12.393-20.203 18.916-21.716l1.07-.248.684.777c.769.874 1.619 1.302 3.861 1.945 2.517.721 8.123 1.418 7.85.975-.066-.106-.304-.193-.529-.193-.513 0-4.163-.722-5.93-1.173-3.422-.874-5.557-2.466-4.762-3.553.191-.262.266-.267.791-.049 2.551 1.058 8.693 1.928 13.685 1.938 3.569.008 3.523-.409-.063-.558-10.343-.431-19.209-3.34-21.358-7.008-.699-1.193-.577-1.351.509-.657 6.497 4.157 18.864 5.513 27.724 3.041 8.524-2.377 16.548-8.05 20.249-14.314a111.805 111.805 0 0 1 1.874-3.08c.299-.456.544-.909.544-1.005 0-.112.567-.175 1.541-.173 4.447.011 6.638-3.481 7.131-11.363.294-4.713-.539-7.255-2.74-8.354-.736-.367-2.74-.472-3.576-.186-.238.081-.28-.026-1.44-3.756-4.805-15.445-14.882-23.177-30.166-23.148-10.371.02-17.549 2.596-23.537 8.449-1.188 1.161-1.299 1.137-1.291-.274.022-3.76 7.169-9.338 14.455-11.283 5.228-1.395 15.226-1.433 20.455-.077.568.147 1.11.241 1.205.209.252-.083-2.84-.896-4.871-1.279-2.413-.455-6.317-.847-8.445-.847-2.207 0-2.146-.066.544-.585 3.939-.761 7.648-.965 12.271-.674m-5.786 8.502c4.893.953 9.653 3.214 13.781 6.545 2.462 1.987 5.667 6.729 8.14 12.045 2.588 5.562 2.736 6.475 1.493 9.238-1.465 3.256-2.366 7.839-2.41 12.262-.007.656-.316.596-.56-.109-.171-.489-.205-1.508-.144-4.307.087-4.022.186-4.561 1.39-7.547 1.378-3.418 1.349-3.777-.712-9.037-2.035-5.191-2.791-6.645-4.425-8.505-3.142-3.578-9.415-6.615-15.472-7.491-5.683-.822-15.887 4.436-21.033 10.838-4.158 5.172-10.132 16.634-10.132 19.44 0 .278-.095.385-.345.385-.677 0-.199-4.981.76-7.917 1.438-4.403.061-4.811-2.121-.627-3.414 6.547-4.107 11.397-2.595 18.175.411 1.845.329 2.069-.279.755-1.825-3.955-2.882-10.957-2.271-15.053.103-.687.303-2.105.445-3.151 1.235-9.09 4.994-15.298 12.832-21.189 5.826-4.379 15.546-6.33 23.658-4.75m15.5 1.958c4.841 4.144 8.404 9.531 10.603 16.032.493 1.457.921 2.525.951 2.372.03-.152-.095-.744-.277-1.316-.183-.571-.574-1.864-.87-2.872-1.426-4.856-5.768-10.966-10.249-14.424-1.229-.948-1.339-.802-.158.208m13.906 23.543c4.4 2.276 3.212 15.839-1.594 18.19-4.645 2.273-6.769-5.908-3.665-14.121 1.257-3.328 3.434-5.012 5.259-4.069m-1.856 2.121c-.434.252-.721.6-.968 1.175-.464 1.078-.356 1.335.162.386.752-1.376 1.921-1.411 2.672-.08.828 1.465.458 7.135-.682 10.448-.818 2.379-2.727 2.429-3.24.085l-.21-.962-.015.916c-.052 3.279 3.377 3.389 4.654.15 2.405-6.099.859-13.992-2.373-12.118m-2.182 6.052c-.269 1.412-.381 2.902-.206 2.726.141-.141.616-3.44.553-3.839-.034-.213-.19.288-.347 1.113m-.798 14.445c-3.743 6.443-7.543 10.098-14.154 13.614-1.054.56-1.879 1.02-1.833 1.021.694.02 5.112-2.254 6.937-3.571 4.115-2.968 8.192-7.78 9.585-11.316.483-1.225.263-1.122-.535.252m-33.404 27.93c-1.116 1.499-2.227 4.875-1.604 4.875.128 0 .854-1.483.854-1.744 0-.054.338-.811.75-1.682.413-.871.75-1.657.75-1.746 0-.313-.42-.147-.75.297m47.864 3L242.59 151c-.325 6.112-.884 13.945-1.094 15.333-.255 1.685-.955 8.388-1.079 10.334-.953 14.884-3.857 20.667-11.709 23.319-2.224.751-2.115.964-1.365-2.653 1.561-7.517 1.761-9.193 2.166-18.083.732-16.08 2.952-22.568 11.959-34.958.783-1.077 1.46-1.959 1.503-1.959.044 0 .033.882-.024 1.959m-61.994 1.884c-2.135.522-2.898 1.784-3.444 5.698-1.262 9.051.013 10.024 13.716 10.465 5.659.183 14.669-.017 14.996-.332.411-.396-4.155-.665-11.388-.671-16.235-.014-17.895-.832-16.764-8.259.799-5.246 2.091-6.392 6.127-5.433 5.037 1.197 9.626 1.577 17.221 1.427 6.364-.125 6.808-.076 7.692.861 1.728 1.832.771 7.979-1.664 10.693-.421.469-.236.479.496.027 2.816-1.741 3.938-10.15 1.599-11.989-1.125-.886-5.139-1.11-9.82-.549-3.569.427-8.276-.079-14.853-1.597-1.803-.416-3.132-.532-3.914-.341m7.243 18.532c-1.541 7.869-1.491 14.605.165 22.209.28 1.283.583 2.408.675 2.5.11.111.133-.001.068-.334-.208-1.062-.923-5.92-1.128-7.666-.36-3.062-.268-6.854.257-10.667.747-5.419.92-7.917.549-7.917-.146 0-.342.627-.586 1.875m-24.852 30.418c.791 1.107 1.95 1.612 2.518 1.098.426-.385.41-.029-.052 1.178-.401 1.048-.517 1.112-.914.506-.35-.534-.89-.812-2.094-1.079-.767-.171-.982-.294-1.125-.645-.25-.616-.511-2.109-.508-2.915l.001-.686.834.917a21.926 21.926 0 0 1 1.34 1.626m36.816 27.707a124.54 124.54 0 0 0 1.225 4.5c1.145 3.899 2.189 8.424 2.529 10.959.137 1.02-.018 1.083-1.513.622-1.059-.327-4.23-1.014-5.384-1.166l-.899-.119.1-2.023c.113-2.284.625-5.224 1.716-9.856.41-1.742.858-3.729.996-4.417.348-1.733.423-1.867.606-1.083.086.367.367 1.529.624 2.583m84.173 4.417c.23.131.492.238.584.238.091 0-.021-.107-.25-.238s-.492-.238-.584-.238c-.091 0 .021.107.25.238"/><path fill="#fbfbfb" d="M201.75 56.918c-2.032.224-5.305.753-5.21.842.024.022 1.281.125 2.793.229 5.295.364 13 2.1 13 2.928 0 .057-.062.064-.138.017-2.649-1.637-16.001-2.423-21.612-1.271C182.609 61.3 174 67.388 174 71.391c0 .938.456.872 1.611-.231 4.501-4.302 9.844-6.785 16.889-7.85 17.589-2.658 30.937 5.313 36.322 21.69.257.779.717 2.225 1.023 3.213.453 1.459.605 1.773.814 1.674 1.545-.736 4.07.087 5.131 1.672 2.575 3.848 1.059 14.825-2.399 17.374-1.229.905-3.171 1.402-4.281 1.096l-.598-.165-1.396 2.276a406.086 406.086 0 0 0-2.041 3.36c-3.031 5.09-11.65 10.89-19.461 13.096-6.401 1.808-16.894 1.571-22.421-.507-2.681-1.008-4.523-1.867-5.806-2.707-.523-.343-.487-.09.12.826 1.274 1.924 3.502 3.237 7.66 4.513 4.706 1.444 7.117 1.866 12.166 2.128 3.524.183 4.386.334 4.016.701-.852.846-11.553-.179-15.964-1.531-1.139-.349-1.218-.329-1.218.311 0 1.461 3.513 2.819 10.382 4.014 1.545.268 1.402.589-.233.523-4.835-.195-8.93-1.304-10.469-2.836l-.903-.898-1.054.26c-6.994 1.726-13.849 10.304-20.798 26.024-2.075 4.694-2.729 6.758-4.167 13.166-2.009 8.945-2.213 23.061-.366 25.315 2.089 2.55 7.118 4.532 7.86 3.098.676-1.307-.339-2.97-1.836-3.007-.748-.019-1.017-.176-1.486-.869-.908-1.34-1.25-2.628-1.283-4.831-.014-.922-.08-1.15-.452-1.551-1.696-1.829-2.096-2.571-1.384-2.571.34 0 2.795 2.438 5.118 5.083 1.852 2.109 1.988 2.211 2.267 1.712.335-.598.24-2.995-.186-4.71-.787-3.168-.178-6.148 1.703-8.335l.574-.667.095-4.333c.197-8.971 2.158-17.94 5.483-25.071 1.729-3.71 2.991-4.967 1.685-1.679-1.728 4.352-2.739 7.629-3.701 12-3.514 15.957-2.105 28.274 4.373 38.239.89 1.368 1.592 2.568 1.56 2.666-.273.83-2.189-.735-3.761-3.072l-.729-1.083.109 1.583c.059.871.216 2.746.349 4.167.596 6.406.94 10.192 1.25 13.75.493 5.662.99 10.397 1.339 12.75.17 1.146.437 3.332.593 4.859l.285 2.776.766-.236c3.149-.969 9.054-1.649 13.304-1.533 1.492.041 2.722.069 2.733.062.01-.006.077-2.637.147-5.845l.128-5.833.695-3.25c1.261-5.893 1.179-6.78-.817-8.9-.71-.754-1.321-1.446-1.357-1.538-.037-.092-.656-.492-1.378-.887-1.66-.912-3.767-2.495-4.423-3.323-1.259-1.589-.989-2.349.376-1.058 1.894 1.792 5.385 3.689 8.963 4.873 2.832.936 2.6 1.078 2.524-1.542-.066-2.292.076-3.638.396-3.744.274-.092.372.471.643 3.685.472 5.588 1.425 10.179 3.412 16.434 1.095 3.447 2.435 8.875 2.756 11.166.194 1.379.085 1.327 1.669.814 3.602-1.166 9.04-1.805 13.037-1.531 1.123.076 2.042.085 2.042.019 0-.067-.185-1.193-.411-2.503-.858-4.97-1.096-8.328-1.172-16.465-.03-3.255-.132-6.555-.225-7.334-.226-1.87-.234-7.9-.014-10.416.24-2.759.69-4.758 2.398-10.667 1.608-5.56 1.92-7.186 2.354-12.25 1.078-12.594 2.331-17.882 5.281-22.29.538-.803 1.447-2.616 2.25-4.487a576.195 576.195 0 0 1 1.765-4.076c.23-.516.875-1.453 1.434-2.084.559-.63 1.944-2.234 3.077-3.563a162.323 162.323 0 0 1 3.844-4.333c.982-1.055 2.279-2.555 2.883-3.334.605-.779 1.894-2.241 2.864-3.25.971-1.008 2.192-2.446 2.713-3.195.521-.749 1.018-1.405 1.104-1.458.087-.053.121-.236.076-.407-.093-.357.152-.471 3.529-1.642 3.793-1.314 4.418-1.717 7.833-5.049 4.286-4.181 4.639-4.473 7.371-6.099 4.077-2.425 5.463-4.125 5.463-6.702 0-2.387-1.039-2.577-5-.914-1.284.539-3.063 1.161-3.955 1.382l-1.622.402.117.675c.229 1.317.163 1.835-.239 1.893-.376.053-.885-.646-.885-1.216 0-2.652-3.418-6.606-7.208-8.339-1.474-.674-1.344-.896.292-.501 1.653.399 1.642.404 1.547-.705-.114-1.322.051-2.418.76-5.061.673-2.509.801-4.364.372-5.392-.348-.834-1.562-2.088-2.021-2.088-.892 0-2.256 2.262-3.065 5.083-1.442 5.033-3.702 8.889-6.402 10.924-.845.637-1.099 1.564-.483 1.765 2.166.709 5.272 3.933 6.009 6.238.491 1.535.088 1.34-1.205-.582-1.378-2.051-4.201-4.379-4.701-3.878-.1.099.156 2.027.373 2.805.11.394-.395.529-.594.159-.09-.169-.388-1.423-.662-2.786-1.008-5.018-1.928-6.768-4.072-7.741-1.725-.784-3.529.141-3.877 1.987-.163.86.17 1.64 1.419 3.322 1.92 2.587 1.936 2.646 1.89 6.923-.043 3.848-.016 4.073.893 7.447.53 1.969.819 2.802 1.425 4.118.676 1.467.481 2.023-.293.84-.94-1.437-2.282-3.898-2.46-4.512l-.199-.686-.327.459c-3.168 4.441-6.648 7.582-11.789 10.639a76.35 76.35 0 0 1-4.622 2.505 142.016 142.016 0 0 1-4.916 2.306c-3.548 1.604-10.215 3.595-13.733 4.1-1.775.255-7.253.384-7.461.176-.201-.2.001-.241 2.194-.438 5.338-.48 10.089-1.553 13.833-3.126.55-.231 1.179-.488 1.398-.572.721-.274.275-.298-.905-.048-4.602.974-11.076 1.508-11.076.914 0-.173.276-.226 2.666-.511a38.937 38.937 0 0 0 3-.497c4.558-.993 5.414-1.203 6.525-1.602 15.36-5.514 25.261-30.179 20.287-50.539-2.422-9.915-6.87-15.698-15.451-20.087-5.627-2.879-13.308-4.139-20.444-3.354m-7.25 8.161c-8.745.933-15.284 4.464-20.839 11.254-6.543 7.999-8.634 22.668-4.596 32.25.519 1.234.549.792.073-1.083-1.386-5.453.504-14.342 4.06-19.096 1.603-2.142 2.341-.914 1.342 2.235-1.021 3.218-1.678 8.195-1.082 8.194.115 0 .209-.144.209-.32 0-1.492 4.166-10.556 6.594-14.346 4.532-7.076 7.842-10.156 14.322-13.328 6.528-3.196 9.695-3.438 16.084-1.231 7.471 2.581 11.017 6.019 13.9 13.475a884.842 884.842 0 0 0 1.459 3.75c.83 2.111.8 3.965-.099 6.084-1.424 3.358-1.929 6.599-1.615 10.373.244 2.936.446 3.031.585.273.213-4.248.909-7.314 2.533-11.164.862-2.044.692-3.386-.844-6.649-3.885-8.253-6.441-12.001-10.003-14.665-6.565-4.911-13.827-6.886-22.083-6.006m25.564 2.181c5.329 4.547 8.527 9.281 10.183 15.073.249.871.553 1.884.676 2.25.123.367.27 1.042.326 1.5.057.459.145.974.195 1.146.059.201.026.272-.091.2-.1-.062-.302-.54-.45-1.062-2.381-8.447-5.717-13.825-12.153-19.594-1.269-1.137-.068-.692 1.314.487m49.7 23.003c-.863.316-2.004 1.195-3.931 3.027-.871.828-2.199 1.967-2.952 2.532-1.38 1.036-2.881 2.579-2.881 2.963 0 .115.3.362.668.549 1.031.526 2.915 2.407 3.783 3.778l.784 1.238.332-.706c.183-.388 1.162-1.572 2.175-2.633 3.981-4.163 4.28-4.546 4.604-5.895.371-1.548-.068-3.705-.93-4.567-.611-.61-.717-.629-1.652-.286m-38.982.917c-3 1.987-4.881 9.573-3.681 14.846.934 4.109 4.944 4.213 7.03.182 3.718-7.182 1.286-18.098-3.349-15.028m2.452 1.531c2.99 1.71 2.279 12.833-.924 14.468-1.713.874-3.31-.29-3.31-2.413 0-1.256.246-1.297.504-.082.336 1.587 1.328 2.244 2.241 1.486 1.252-1.039 2.408-8.424 1.736-11.092-.496-1.969-1.959-2.114-2.882-.286-.151.298-.353.541-.45.541-.661 0 .561-2.289 1.434-2.688.841-.384.867-.383 1.651.066m-3.348 4.664c-.062.837-.515 3.803-.652 4.261-.127.428-.401 0-.401-.627 0-.565.521-3.437.765-4.217.186-.597.351-.264.288.583m-.719 5.542c0 .137-.075.25-.167.25-.092 0-.167-.113-.167-.25 0-.138.075-.25.167-.25.092 0 .167.112.167.25m.333 9.248c0 .836-2.124 4.386-4.14 6.918-3.05 3.834-8.609 7.786-12.652 8.994-1.044.312-.164-.422 1.447-1.206 6.187-3.011 10.518-7.207 14.549-14.095.42-.717.796-1.006.796-.611m-33.569 28.691c.064.104-.226.91-.644 1.792a61.734 61.734 0 0 0-1.163 2.593c-.518 1.277-.791 1.381-.791.299 0-2.12 1.978-5.687 2.598-4.684m43.781 3.102c-2.488 3.152-4.333 5.789-5.044 7.209-.519 1.035-.418.905 1.357-1.75 1.237-1.852 3.759-5.341 4.85-6.709.091-.114.126-.208.077-.208s-.607.656-1.24 1.458m-55.462 2.275c.55.125 1.862.425 2.917.669 4.505 1.039 9.876 1.462 13.111 1.034 4.739-.629 8.372-.286 9.559.901 2.147 2.147 1.028 9.856-1.72 11.846-1.12.812-1.415.64-.622-.363 2.731-3.455 3.205-9.561.838-10.794l-.75-.391-5.5.094c-7.994.137-12.313-.205-17.675-1.398-4.312-.959-5.226-.244-6.153 4.812-1.043 5.693.247 7.596 5.547 8.179.797.087 1.823.205 2.281.261.459.057 4.996.165 10.084.241 8.813.132 10.151.213 10.287.623.117.35-.972.414-8.555.501-18.161.209-21.093-.749-20.849-6.815.336-8.366 2.025-10.571 7.2-9.4m54.258 2.525c-2.021 3.119-4.921 8.39-5.354 9.733-.076.234-.331.951-.567 1.592-1.664 4.516-2.39 9.429-3.002 20.313-.241 4.285-.568 8.525-.76 9.854-.32 2.217-.506 3.187-1.342 6.964-.455 2.059-.495 2.04 1.632.77 6.204-3.705 8.064-9.166 9.131-26.817.296-4.888.452-6.762 1.01-12.104.454-4.344.663-9.28.462-10.889l-.135-1.075-1.075 1.659m-49.47 15.652c-.025.907-.234 3.079-.464 4.828-.743 5.661-.78 6.128-.687 8.762.09 2.582.305 4.457 1.032 8.997.375 2.343.386 2.67.085 2.67-.148 0-.215-.252-.931-3.5-1.564-7.093-1.401-17.536.362-23.218.306-.987.648-.16.603 1.461m80.295 8.873c-10.251.43-20.241 4.489-27.689 11.25-.568.516-.645.713-1.228 3.134-2.172 9.018-4.573 11.779-11.843 13.62-2.084.528-1.937.327-2.309 3.171-.962 7.353-1.265 30.367-.37 28.125.073-.183.361-.933.639-1.666 5.105-13.453 24.095-29.708 36.8-31.502.413-.058.9-.146 1.084-.196.223-.06.278-.034.166.078-.091.092-.708.288-1.369.436-10.514 2.348-24.561 13.786-31.337 25.517-1.288 2.23-3.148 6.201-2.982 6.367.024.024 1.126-.675 2.449-1.553 14.044-9.325 33.011-11.031 49.825-4.48 2.044.796 6.778 3.14 7.418 3.673.307.255-.33.003-1.67-.66-1.192-.59-2.58-1.235-3.084-1.433l-1.75-.688c-14.09-5.539-31.381-4.666-44.25 2.236-2.772 1.486-5.249 3.095-3.916 2.543 4.791-1.984 10.293-2.209 15.286-.624 1.627.516 1.47.736-.203.284-4.288-1.157-9.963-.462-14.37 1.76-2.949 1.487-7.524 5.325-6.347 5.325 2.167 0 10.374 4.025 14.383 7.054 3.603 2.722 10.675 11.013 9.975 11.693-.032.03-1.372-1.419-2.978-3.221-5.566-6.244-11.13-9.952-18.58-12.381-14.252-4.649-26.588-2.602-38.052 6.312-1.959 1.523-1.915 1.136.089-.8 2.115-2.042 3.79-3.387 6.038-4.845 1.024-.664 1.642-1.161 1.5-1.205-7.829-2.412-18.14-2.314-25.879.246-10.631 3.517-20.77 13.268-24.588 23.647-.617 1.679-.592 1.645-.654.868-.262-3.279 4.013-10.891 8.81-15.688 3.741-3.741 10.841-8.452 14.445-9.585.506-.159.485-.242-.351-1.378-4.526-6.148-12.758-12.646-20.143-15.899-10.788-4.752-24.199-3.983-32.965 1.89-1.504 1.007-1.633 1.073-1.25.635 1.419-1.62 6.985-4.339 10.965-5.355 11.347-2.897 23.157-.332 34.253 7.441l1.552 1.086-1.212-1.549c-7.197-9.199-14.363-15.527-22.224-19.624-1.711-.892-.91-.731 1.123.225 9.389 4.417 19.217 13.365 28.307 25.774 1.537 2.097 2.49 3.317 3.761 4.812.033.039.022-.261-.025-.666l-.338-2.987c-.14-1.238-.328-2.667-.418-3.178-.227-1.287-.789-6.261-.911-8.072-.056-.825-.243-3.075-.417-5-.9-9.991-1.467-17.213-1.61-20.488-.076-1.739-.178-2.496-.394-2.929-.511-1.023-1.5-4.344-1.982-6.659l-.467-2.244-.648-.286c-.885-.39-.84-.413-1.069.54-.341 1.423.28 6.22 1.007 7.773.576 1.229-.186 4.685-1.166 5.291-.094.058-.17.452-.17.876 0 3.667-4.03 3.849-8.621.39-1.591-1.199-2.411-2.158-2.784-3.254-.289-.851-.628-8.283-.578-12.677l.022-2-2.978-.047c-10.4-.165-22.207 4.351-30.786 11.776l-.775.67.889.59c2.149 1.427 2.017 1.522-2.03 1.465-12.763-.181-19.93 1.194-25.961 4.983-8.088 5.082-13.811 11.322-17.483 19.063-5.127 10.809-6.222 18.917-4.006 29.667.133.642.434 2.162.67 3.379.602 3.103 1.483 4.945 3.642 7.609l.395.488 1.484-1.501c1.656-1.675 2.445-2.127 4.72-2.702 1.65-.417 1.741-.393.849.226-3.513 2.434-6.806 9.179-7.485 15.33l-.128 1.162.943 2.088c5.956 13.18 17.862 21.743 30.968 22.273 5.545.224 8.735-.782 9.467-2.987.287-.865.235-2.975-.076-3.079-.081-.027-.827-.515-1.657-1.084-7.223-4.953-13.123-12.541-16.282-20.939-1.453-3.864-.94-4.902.733-1.482 1.337 2.733 2.566 4.736 3.681 5.995l2.201 2.484c2.212 2.497 5.139 4.989 8.549 7.276 1.574 1.056 5.883 3.547 6.135 3.547.081 0 .346.14.59.31.601.421 3.27 1.608 5.151 2.291 11.108 4.034 26.984 2.515 40.138-3.841 5.452-2.635 6.555-3.758 4.484-4.565-4.224-1.646-6.358-3.276-7.61-5.814-.772-1.565-.533-1.815.657-.686 5.071 4.811 17.641 6.184 26.276 2.871.526-.202.257.413-.446 1.019-2.212 1.909-7.458 3.574-11.291 3.585-3.346.009-3.876.207-8.084 3.027-5.346 3.582-13.718 7.382-19.184 8.707-2.694.653-3.119 2.064-.95 3.16 3.982 2.011 14.689 3.394 22.028 2.844l1.561-.117-1.977-1.026c-1.622-.842-3.721-2.071-4.05-2.371-.482-.44.522-.312 1.923.246 5.815 2.315 11.642 3.47 18.398 3.644l3.749.097-1.348-1.424c-1.223-1.293-2.753-3.363-3.02-4.088-.058-.157.452.24 1.133.883 1.35 1.273 3.211 2.63 5.137 3.745l1.233.714 1.321-.11c7.006-.585 17.123-3.811 19.204-6.125 1.718-1.911 1.323-2.97-1.324-3.552-7.603-1.67-14.752-6.342-18.918-12.36-1.043-1.506-.93-1.595.594-.468 15.173 11.221 31.489 11.979 51.834 2.407 2.093-.985 2.259-.958 1.146.183-3.364 3.449-9.653 7.208-14.906 8.909-3.92 1.269-3.825 1.228-3.933 1.66-.658 2.62 10.344 1.78 19.683-1.503 6.904-2.428 16.897-6.633 17.032-7.168.023-.092-.325-.416-.774-.72-.448-.304-1.74-1.507-2.87-2.672-2.293-2.364-2.13-2.277-5.972-3.188-3.886-.922-6.015-1.825-3.791-1.609 8.78.854 18.518-.077 25.541-2.442l1.667-.561 1.243-1.966c1.344-2.125 1.539-2.201 1.077-.418-.398 1.533-.411 1.531 2.132.269 9.059-4.497 16.546-11.993 22.637-22.663 1.968-3.448 2.191-3.116.807 1.204-2.246 7.007-6.895 14.241-11.737 18.26-3.652 3.031-4.402 4.881-3.066 7.556 2.293 4.589 9.178 3.391 20.783-3.617 8.321-5.025 14.342-10.783 15.31-14.641 2.97-11.835 1.328-26.31-3.977-35.062-.697-1.149-1.679-2.946-2.182-3.993-2.117-4.402-9.585-11.989-15.924-16.178L304.62 200l.898.002c.601.002 1.552.223 2.873.667 4.491 1.511 4.763.546 1.469-5.218-3.403-5.954-4.092-6.736-11.309-12.817-7.536-6.35-18.339-9.808-29.218-9.351m-107.962 20.8c.129 1.831.504 2.446 1.629 2.672 1.127.227 1.54.443 1.963 1.023l.328.45.354-.802c.418-.944.449-1.211.107-.928-.506.421-1.556-.13-2.502-1.313a47.19 47.19 0 0 0-1.23-1.446l-.731-.822.082 1.166m37.901 26.5c-1.98 8.183-2.745 12.115-2.884 14.834l-.102 2 1.982.394c1.626.323 3.988.884 5.42 1.288.247.07.25-.029.04-1.136-.915-4.831-1.409-7.007-2.183-9.63a658.87 658.87 0 0 1-.73-2.5c-.418-1.445-1.273-4.812-1.356-5.333-.064-.406-.069-.403-.187.083"/><path fill="#d4d4d4" d="M196.093 57.849c.051.083.551.151 1.111.151.56 0 .987-.027.949-.061-.163-.142-2.146-.229-2.06-.09m-1.716 1.271c.254.038.629.037.834-.003.205-.039-.003-.071-.461-.069-.458.001-.626.033-.373.072m5.087.003c.484.034 1.234.033 1.667-.001.432-.034.036-.062-.881-.061-.917 0-1.27.028-.786.062m-2.753 3.83c.253.038.628.037.833-.002.205-.04-.002-.071-.461-.07-.458.001-.626.034-.372.072m4.247-.002c.207.04.544.04.75 0 .207-.04.038-.072-.375-.072-.412 0-.581.032-.375.072m29.875 3.632c.591.596 1.112 1.084 1.157 1.084.046 0-.399-.488-.99-1.084-.591-.596-1.111-1.083-1.157-1.083-.046 0 .4.487.99 1.083m2.259 2.667c5.426 8.324 7.328 21.878 4.657 33.186-3.535 14.969-10.694 24.921-20.499 28.5-1.872.683-1.66.71.596.075 6.032-1.697 11.467-4.383 13.57-6.706 3.505-3.87 6.733-9.927 8.735-16.388 1.045-3.373 1.047-3.224-.066-5.504-1.508-3.09-1.154-5.275 1.028-6.349l.863-.425.119-1.108c.736-6.872-2.496-17.033-7.538-23.698-1.764-2.332-2.404-3.024-1.465-1.583m-11.009.75c.358.367.689.667.735.667.045 0-.21-.3-.568-.667-.358-.367-.688-.667-.734-.667-.046 0 .209.3.567.667m-45.425 3.125-.575.625.625-.574c.344-.316.625-.598.625-.625 0-.128-.141-.008-.675.574m43.002 1.75c.69.736.84.868.84.743 0-.027-.356-.383-.792-.792l-.791-.743.743.792m-33.754 1.833-.489.542.541-.49c.505-.456.619-.593.49-.593-.029 0-.273.243-.542.541M260.883 89c0 .504.032.71.07.458a3.694 3.694 0 0 0 0-.916c-.038-.252-.07-.046-.07.458m-23.831 7.25c.001.55.032.755.069.455a4.447 4.447 0 0 0-.002-1c-.038-.25-.068-.005-.067.545m-2.013.25c0 .321.034.452.076.292a1.37 1.37 0 0 0 0-.584c-.042-.16-.076-.029-.076.292m-1.319.667c0 .596.03.839.067.541a5.297 5.297 0 0 0 0-1.083c-.037-.298-.067-.054-.067.542m27.032.331c-.263.274-.446.525-.407.558.04.032.285-.192.546-.499.59-.692.503-.729-.139-.059m-36.377.419c.002.366.036.497.076.289.04-.207.039-.507-.003-.666-.042-.16-.074.01-.073.377m5.33.416c0 .321.035.452.077.292.041-.16.041-.423 0-.583-.042-.161-.077-.029-.077.291m5.334.334c0 .32.034.452.076.291.042-.16.042-.423 0-.583-.042-.16-.076-.029-.076.292m-67.991 1.416c.001.459.033.626.072.373a2.968 2.968 0 0 0-.003-.833c-.039-.205-.071.002-.069.46m83.029.125-.827.875.875-.827c.481-.455.875-.848.875-.875 0-.124-.154.014-.923.827m16.747 1.75-.574.625.625-.574c.582-.535.702-.676.574-.676-.027 0-.309.282-.625.625m-42.607 1.209c0 .504.031.71.069.458a3.702 3.702 0 0 0 0-.917c-.038-.252-.069-.046-.069.459m27.116 2.885c0 .029.244.273.542.542l.542.489-.49-.541c-.456-.505-.594-.619-.594-.49m23.073 3.323-.489.542.541-.49c.505-.456.619-.594.49-.594-.029 0-.273.244-.542.542m-10.158 7.833-2.331 2.375 2.375-2.331c2.206-2.165 2.45-2.419 2.331-2.419-.024 0-1.093 1.069-2.375 2.375m-41.503 3.667-.995 1.042 1.042-.995c.967-.924 1.118-1.089.994-1.089-.025 0-.494.469-1.041 1.042m.495.5-.49.542.542-.49c.505-.456.618-.594.489-.594-.029 0-.272.244-.541.542m14 1.333-.49.542.542-.49c.505-.456.618-.593.489-.593-.029 0-.272.243-.541.541m15.928 2.021-1.082.188-.999 1.417c-.55.779-1.793 2.241-2.762 3.249-.969 1.009-2.256 2.471-2.861 3.25-.604.779-1.901 2.279-2.883 3.334a162.323 162.323 0 0 0-3.844 4.333 322.332 322.332 0 0 1-3.077 3.563c-.559.631-1.204 1.568-1.434 2.084-.229.515-1.023 2.349-1.765 4.076-.803 1.871-1.712 3.684-2.25 4.487-2.95 4.408-4.203 9.696-5.281 22.29-.434 5.064-.746 6.69-2.354 12.25-1.708 5.909-2.158 7.908-2.398 10.667-.22 2.517-.212 8.547.014 10.416.094.779.195 4.042.225 7.25.076 8.222.352 11.986 1.255 17.105l.371 2.104 1.083.111c1.364.139 1.251.5 1.048-3.341-.877-16.579-.361-27.411 1.745-36.645 1.616-7.081 1.908-9.549 2.922-24.629.499-7.406 1.674-12.558 3.947-17.288.594-1.238 1.148-2.275 1.231-2.306.082-.031.107-.124.056-.208-.052-.084-.011-.153.092-.153.102 0 .14-.075.083-.166-.057-.092-.024-.167.073-.167.098 0 .168-.056.157-.125-.052-.331.036-.551.185-.46.098.061.12-.014.055-.184-.074-.192-.047-.247.083-.166.119.073.161.035.109-.099-.144-.377 3.809-6.055 4.093-5.88.076.048.193-.002.259-.109.076-.122.049-.151-.072-.076-.105.065-.192.044-.192-.048 0-.183.321-.425.583-.441.092-.006.146-.109.119-.229-.066-.306.297-.701.525-.571.104.059.136.049.071-.024-.177-.195.188-.783.403-.65.108.067.137.038.07-.071-.062-.101.041-.266.229-.367.188-.101.301-.251.25-.333-.051-.083.059-.232.245-.331.186-.1.338-.285.338-.411 0-.127.067-.256.148-.286.081-.031 1.22-1.556 2.53-3.389 3.489-4.882 6.129-8.303 9.035-11.708 1.427-1.672 1.439-1.629-.378-1.313m-61.126 5.057c.252.038.664.038.916 0s.046-.069-.458-.069-.71.031-.458.069m6.416-.002c.207.04.544.04.75 0 .207-.039.038-.072-.375-.072-.412 0-.581.033-.375.072m-1.581 3.169c.254.038.629.037.834-.002.205-.04-.003-.071-.461-.07-.458.001-.626.034-.373.072m8.29.57c0 .079.187.144.416.144.23 0 .417-.029.417-.064s-.187-.1-.417-.144c-.229-.044-.416-.015-.416.064m-11.292.092c.16.042.423.042.583 0 .161-.042.029-.076-.291-.076-.321 0-.452.034-.292.076m2.585.17c.208.039.508.038.667-.004.159-.042-.01-.074-.377-.072-.367.002-.497.036-.29.076m-.96 2.854c0 .107-.244.206-.542.219-.532.025-.533.026-.063.097.478.071.935-.181.719-.397-.063-.062-.114-.026-.114.081m-21.254 1.236-1.163 1.208 1.209-1.162c1.122-1.079 1.284-1.254 1.162-1.254-.026 0-.569.543-1.208 1.208m27.798-.922c.253.038.628.037.833-.002.205-.04-.002-.071-.46-.07-.459.001-.626.034-.373.072m40.522 6.027c-.193.24-.944 1.262-1.669 2.27l-1.319 1.833.137 1.084c.204 1.61-.003 6.535-.459 10.896-.558 5.342-.714 7.216-1.01 12.104-1.07 17.691-2.936 23.152-9.17 26.826a540.887 540.887 0 0 0-1.882 1.112c-.069.043-.356 1.289-.309 1.336.116.115 3.944-1.332 4.889-1.848 5.415-2.959 7.431-8.308 8.641-22.926.372-4.498.537-6.138.823-8.167.375-2.669 1.891-24.804 1.707-24.936-.015-.011-.186.176-.379.416m-50.024 6.135c.16.042.423.042.583 0 .16-.042.029-.076-.292-.076s-.452.034-.291.076m11 .009a26.38 26.38 0 0 0 2.25 0c.618-.032.112-.059-1.125-.059-1.238 0-1.744.027-1.125.059m-6.75.166c.664.032 1.752.032 2.416 0 .665-.031.121-.057-1.208-.057s-1.873.026-1.208.057m-18.907 7.127c.001.55.032.755.069.455.037-.3.036-.75-.002-1s-.068-.005-.067.545m7.823 4.698c.161.042.423.042.584 0 .16-.042.029-.076-.292-.076s-.452.034-.292.076m-.081 1.17c.207.039.507.038.667-.004.159-.042-.011-.074-.377-.072-.367.002-.497.036-.29.076m3.331.17c.39.035 1.027.035 1.417 0 .39-.035.071-.063-.708-.063-.78 0-1.098.028-.709.063m13.5-.004c.207.04.544.04.75 0 .207-.04.038-.072-.375-.072-.412 0-.581.032-.375.072m-13.46 1.265.081 1.034.053-.899c.03-.494-.007-.959-.081-1.034-.074-.074-.098.33-.053.899m80.462 9.569c.208.039.508.038.667-.004.159-.042-.01-.074-.377-.072-.367.002-.497.036-.29.076m2.332-.001c.206.04.543.04.75 0 .206-.039.037-.072-.375-.072-.413 0-.582.033-.375.072m-102.587.549c0 .321.035.452.077.292.041-.16.041-.423 0-.583-.042-.161-.077-.03-.077.291m-1.657 1.084c.001.458.033.626.072.372a2.968 2.968 0 0 0-.003-.833c-.039-.205-.071.002-.069.461m19.339.75c0 .595.03.839.067.541a5.297 5.297 0 0 0 0-1.083c-.037-.298-.067-.054-.067.542m42.822 1.083c.002.367.036.497.076.29a1.834 1.834 0 0 0-.004-.667c-.042-.159-.074.01-.072.377m-.167 3c.002.367.036.497.076.29.04-.208.038-.508-.003-.667-.042-.159-.075.01-.073.377m-61.994.667c.001.458.033.626.072.372a2.968 2.968 0 0 0-.003-.833c-.039-.205-.071.002-.069.461m-17.09 2.038c.39.035 1.027.035 1.417 0 .39-.035.071-.063-.708-.063-.78 0-1.098.028-.709.063m3.601 1.795c0 .825.028 1.184.063.797a10.87 10.87 0 0 0 .001-1.5c-.035-.438-.063-.122-.064.703m75.146 1.417c0 .32.035.452.077.291.041-.16.041-.423 0-.583-.042-.16-.077-.029-.077.292m-68.038 5.583c.311.321.603.583.648.583.046 0-.171-.262-.482-.583-.311-.321-.603-.583-.648-.583-.046 0 .171.262.482.583m.038 2.083c0 .321.035.452.077.292.041-.16.041-.423 0-.583-.042-.161-.077-.03-.077.291m5.648-.228a.784.784 0 0 0 .272.583c.254.199.267.196.101-.021a1.91 1.91 0 0 1-.272-.584c-.078-.316-.083-.315-.101.022m.692 2.062c0 .412.033.581.073.375a2.418 2.418 0 0 0 0-.75c-.04-.207-.073-.038-.073.375m3.342 2.5c0 .595.03.839.067.541a5.297 5.297 0 0 0 0-1.083c-.037-.298-.067-.054-.067.542m65.022-.125-.659.708.708-.659c.659-.613.785-.758.659-.758-.027 0-.346.319-.708.709m-124.862-.419a10.87 10.87 0 0 0 1.5-.001c.387-.035.028-.063-.797-.063-.825.001-1.141.029-.703.064m7.58-.005c.207.04.507.038.667-.003.159-.042-.011-.075-.377-.073-.367.002-.497.036-.29.076m36.873 1.767c0 .029.244.273.542.542l.541.49-.489-.542c-.456-.505-.594-.618-.594-.49m30.667 7.365c.311.321.603.583.648.583.046 0-.171-.262-.482-.583-.311-.321-.603-.583-.648-.583-.046 0 .171.262.482.583m-45.611.671c.261.149.517.228.57.175.143-.142.013-.224-.543-.341l-.5-.106.473.272m30.983.579c0 .321.034.452.076.292a1.37 1.37 0 0 0 0-.584c-.042-.16-.076-.029-.076.292m-87.133.542-.489.541.541-.489c.505-.456.619-.594.49-.594-.029 0-.273.244-.542.542m101.761-.49c0 .029.243.273.541.542l.542.489-.49-.541c-.456-.505-.593-.619-.593-.49m39.538 1.781c0 .321.035.452.077.292.041-.16.041-.423 0-.583-.042-.161-.077-.03-.077.291m-26.666.834c0 .32.034.452.076.291.042-.16.042-.423 0-.583-.042-.16-.076-.029-.076.292m-.994.333c0 .412.033.581.073.375a2.418 2.418 0 0 0 0-.75c-.04-.206-.073-.037-.073.375m-116.139.042-.489.541.541-.489c.505-.456.619-.594.49-.594-.029 0-.273.244-.542.542m143.633.958c0 .321.034.452.076.292a1.37 1.37 0 0 0 0-.584c-.042-.16-.076-.029-.076.292m-33.539.191c0 .084.592.782 1.316 1.55 2.023 2.149 2.105 3.017.841 8.926l-.695 3.25-.117 5.833c-.137 6.86-.259 5.872.741 6.005l.831.11.025-1.655c.044-2.768.863-7.424 2.295-13.043.128-.505.283-1.217.343-1.584.061-.366.337-1.596.612-2.731.61-2.511.473-4.852-.284-4.852-.584 0-3.198-.797-4.616-1.407-.711-.306-1.292-.487-1.292-.402m48.994 1.767-.911.959.959-.911c.89-.847 1.034-1.006.911-1.006-.026 0-.458.431-.959.958m-3.164 1.167-1.747 1.792 1.792-1.747c1.664-1.623 1.867-1.837 1.747-1.837-.025 0-.831.807-1.792 1.792m-81.497 2.427c0 .029.244.273.542.542l.542.489-.49-.541c-.456-.505-.594-.619-.594-.49m68.899 3.281c0 1.238.026 1.744.058 1.125a26.38 26.38 0 0 0 0-2.25c-.032-.618-.058-.112-.058 1.125m-89.438-1.382c.207.04.507.039.666-.003.16-.042-.01-.074-.377-.073-.366.002-.497.036-.289.076m4.331 0c.206.04.544.04.75 0 .206-.04.037-.072-.375-.072-.413 0-.581.032-.375.072m-5.998.834c.207.039.507.038.667-.004.159-.042-.011-.074-.377-.072-.367.002-.497.036-.29.076m5.5 0c.207.039.507.038.667-.004.159-.042-.011-.074-.377-.072-.367.002-.497.036-.29.076m18.373.6c0 .029.244.273.542.542l.541.49-.489-.542c-.456-.505-.594-.618-.594-.49m98.375 1.397c.16.041.423.041.583 0 .161-.042.029-.077-.291-.077-.321 0-.452.035-.292.077m7.333 0c.161.041.423.041.584 0 .16-.042.029-.077-.292-.077s-.452.035-.292.077M172.872 223c0 .321.034.452.076.292a1.37 1.37 0 0 0 0-.584c-.042-.16-.076-.029-.076.292m114.696 5.859c-.074.119-.046.147.073.074.106-.066.192-.048.192.039 0 .088.113.202.25.255.367.141.306-.186-.073-.388-.231-.124-.357-.118-.442.02m-46.021.764a10.87 10.87 0 0 0 1.5-.001c.387-.035.028-.063-.797-.063-.825.001-1.141.029-.703.064m-16.005.96c.002.367.036.497.076.29.04-.207.038-.507-.003-.667-.042-.159-.075.011-.073.377m16.666-.135c.161.042.423.042.584 0 .16-.042.029-.076-.292-.076s-.452.034-.292.076m3.334 0c.16.042.423.042.583 0 .16-.042.029-.076-.292-.076s-.452.034-.291.076m4.125.552c0 .092.154.167.343.167.189 0 .297-.075.24-.167-.057-.092-.211-.167-.343-.167-.132 0-.24.075-.24.167M167 232.75c.311.321.603.583.649.583.046 0-.171-.262-.482-.583-.311-.321-.603-.583-.649-.583-.046 0 .171.262.482.583m29.212 4.083c0 .413.033.582.072.375.04-.206.04-.543 0-.75-.039-.206-.072-.037-.072.375m20.663-.21c.435.034 1.148.034 1.583 0 .436-.035.079-.063-.791-.063-.871 0-1.227.028-.792.063m-29.998.497c.254.038.629.037.834-.003.205-.039-.003-.071-.461-.069-.458.001-.626.033-.373.072m4.167 0c.253.038.628.037.833-.003.205-.039-.002-.071-.46-.069-.459.001-.626.033-.373.072m-14.832 1.047c0 .412.033.581.072.375.04-.207.04-.544 0-.75-.039-.207-.072-.038-.072.375m40.163.622c.435.035 1.148.035 1.583 0 .436-.034.079-.062-.791-.062-.871 0-1.227.028-.792.062M69.73 241c0 1.054.027 1.485.06.958.033-.527.033-1.389 0-1.916-.033-.527-.06-.096-.06.958m260.491-.583c.001.641.031.883.067.538a6.222 6.222 0 0 0-.001-1.167c-.037-.296-.066-.013-.066.629m-137.367 6.479c-.774.778-1.312 1.443-1.216 1.503.095.058.219.03.277-.063.058-.093.046-.169-.026-.169s.465-.6 1.194-1.334c.729-.733 1.288-1.333 1.243-1.333-.046 0-.708.628-1.472 1.396m113.985 1.051c-6.097 10.682-13.577 18.166-22.661 22.675-1.514.751-2.262 1.044-2.309.903-.097-.292-.584.68-1.03 2.058-.912 2.815-2.964 6.414-5.775 10.126-.677.895-1.231 1.661-1.231 1.703 0 .042-.225.431-.5.865-.644 1.016-.679.936.625 1.427 2.022.759 2.608.953 3.919 1.296 9.921 2.597 19.956 1.203 27.929-3.88 10.459-6.668 19.193-16.299 22.125-24.399.883-2.439.717-2.557-.818-.584-4.727 6.073-16.884 14.271-25.275 17.044-5.112 1.69-9.514-.356-9.501-4.416.006-2.002.593-2.881 3.572-5.354 4.842-4.019 9.491-11.253 11.737-18.26 1.384-4.32 1.161-4.652-.807-1.204m23.385-1.03c0 .733.03 1.012.065.62a8.344 8.344 0 0 0-.001-1.333c-.036-.341-.065-.021-.064.713M245.917 248c.636.642 1.195 1.167 1.241 1.167.046 0-.438-.525-1.075-1.167-.636-.642-1.195-1.167-1.241-1.167-.046 0 .438.525 1.075 1.167m-86.672 2.708-.995 1.042 1.042-.995c.573-.547 1.041-1.016 1.041-1.041 0-.124-.164.027-1.088.994M81 259.583c-.405.413-.699.75-.653.75.046 0 .415-.337.82-.75.405-.412.698-.75.652-.75-.045 0-.414.338-.819.75m16.559 8.17c-.547 1.427 3.58 9.876 7.122 14.58 2.938 3.902 9.604 10.012 11.677 10.703.311.104.363 2.214.076 3.079-.732 2.205-3.922 3.211-9.467 2.987-10.834-.438-21.136-6.509-27.746-16.352-1.914-2.85-4.211-7.652-4.112-8.595.047-.445.006-.387-.184.262-.532 1.816-.166 7.729.661 10.687 1.831 6.549 4.091 10.076 9.018 14.07 7.681 6.228 15.77 8.78 25.098 7.919 6.513-.6 9.62-1.151 12.429-2.2.616-.23 1.438-.532 1.827-.671.96-.343.961-.262-.028-2.227-1.775-3.526-3.836-9.17-2.519-6.898 2.502 4.316 5.764 8.338 8.936 11.017 3.789 3.201 4.435 3.614 7.903 5.059 4.932 2.055 9.777 3.433 13.496 3.839.914.1 1.719.216 1.788.259.273.169 5.163.556 7.064.559 6.773.011 14.547-1.716 19.938-4.431 1.827-.921 6.57-3.602 8.381-4.738a50.592 50.592 0 0 1 3.183-1.822l1.516-.775-1.107-.926-1.106-.925-3.91-.095c-6.892-.168-12.684-1.306-18.559-3.645-1.401-.558-2.405-.686-1.923-.246.329.3 2.428 1.529 4.05 2.371l1.977 1.026-1.561.117c-7.339.55-18.046-.833-22.028-2.844-2.169-1.096-1.744-2.507.95-3.16 5.466-1.325 13.838-5.125 19.184-8.707 4.208-2.82 4.738-3.018 8.084-3.027 3.833-.011 9.079-1.676 11.291-3.585.703-.606.972-1.221.446-1.019-8.635 3.313-21.205 1.94-26.276-2.871-1.19-1.129-1.429-.879-.657.686 1.252 2.538 3.386 4.168 7.61 5.814 2.071.807.968 1.93-4.484 4.565-13.154 6.356-29.03 7.875-40.138 3.841-1.881-.683-4.55-1.87-5.151-2.291-.244-.17-.509-.31-.59-.31-.252 0-4.561-2.491-6.135-3.547-3.41-2.287-6.337-4.779-8.549-7.276l-2.201-2.484c-1.113-1.257-2.344-3.261-3.676-5.984-.961-1.967-1.359-2.412-1.598-1.789m182.18 4.899c-.554.522-6.575 2.125-9.989 2.66-4.446.696-12.359.888-17.208.416-2.224-.216-.095.687 3.791 1.609 3.842.911 3.679.824 5.972 3.188 1.13 1.165 2.422 2.368 2.87 2.672.449.304.797.628.774.72-.135.535-10.128 4.74-17.032 7.168-9.339 3.283-20.341 4.123-19.683 1.503.108-.432.013-.391 3.933-1.66 5.253-1.701 11.542-5.46 14.906-8.909 1.113-1.141.947-1.168-1.146-.183-20.345 9.572-36.661 8.814-51.834-2.407-1.524-1.127-1.637-1.038-.594.468 4.166 6.018 11.315 10.69 18.918 12.36 2.647.582 3.042 1.641 1.324 3.552-2.085 2.319-12.197 5.54-19.233 6.127l-1.35.113.541.328c.297.181 1.105.556 1.795.833 19.61 7.883 38.476 5.741 60.339-6.849.935-.538 2.841-1.882 3.834-2.702.412-.341.975-.738 1.25-.883.784-.412.236-.323-1.794.291-4.306 1.303-12.245 2.069-13.54 1.306-.318-.187-.314-.196.084-.201 1.304-.016 9.07-2.398 13.461-4.129 7.587-2.989 13.132-7.611 18.524-15.438 1.206-1.75 1.574-2.412 1.087-1.953"/><path fill="#94949c" d="M198.547 62.956a10.87 10.87 0 0 0 1.5-.001c.387-.035.028-.063-.797-.063-.825.001-1.141.03-.703.064m-31.668 33.877c0 .413.032.582.072.375.04-.206.04-.543 0-.75-.04-.206-.072-.037-.072.375m68.163.75c.002.367.036.497.076.29.04-.207.038-.507-.003-.667-.042-.159-.075.011-.073.377m33.202 2.959-.827.875.875-.827c.481-.455.875-.849.875-.875 0-.125-.155.014-.923.827m6.298 2.406c.16.042.423.042.583 0 .16-.042.029-.076-.292-.076s-.452.034-.291.076m-31.337 4.885c0 .321.035.452.077.292.041-.16.041-.423 0-.583-.042-.161-.077-.029-.077.291m-.153 3.75c.001.55.032.755.069.456.037-.3.036-.75-.002-1-.038-.251-.068-.006-.067.544m-4.728 10.042-.574.625.625-.574c.582-.535.702-.676.574-.676-.027 0-.309.281-.625.625m-44.782 8.157c.16.041.423.041.583 0 .16-.042.029-.077-.292-.077s-.452.035-.291.077m12.666 3.833c.161.042.423.042.584 0 .16-.042.029-.076-.292-.076s-.452.034-.292.076m-8.245.174c.392.035.992.035 1.333-.001.341-.036.021-.065-.713-.064-.733 0-1.012.03-.62.065M242.872 144c0 .321.034.452.076.292a1.37 1.37 0 0 0 0-.584c-.042-.16-.076-.029-.076.292m-41.245 5.118c.207.04.507.038.667-.003.159-.042-.011-.075-.377-.073-.367.002-.497.036-.29.076m9.256 3.715c0 .504.032.711.07.459a3.702 3.702 0 0 0 0-.917c-.038-.252-.07-.046-.07.458m31.326 2.584c.002.366.036.497.076.289a1.83 1.83 0 0 0-.004-.666c-.042-.16-.074.01-.072.377m-51.001 7.031c.161.042.423.042.584 0 .16-.042.029-.076-.292-.076s-.452.034-.292.076m37.664 9.052c0 .321.034.452.076.292a1.37 1.37 0 0 0 0-.584c-.042-.16-.076-.029-.076.292m-61.322 5c0 .504.031.71.069.458a3.6 3.6 0 0 0 0-.916c-.038-.252-.069-.046-.069.458m1.5 1.333c0 .505.031.711.069.459a3.608 3.608 0 0 0 0-.917c-.038-.252-.069-.046-.069.458m-1.5 1c0 .505.031.711.069.459a3.608 3.608 0 0 0 0-.917c-.038-.252-.069-.046-.069.458m60.659 2.25c.002.367.036.497.076.29a1.835 1.835 0 0 0-.004-.667c-.042-.159-.074.011-.072.377m-62.164 6.584c0 .412.033.581.073.375a2.418 2.418 0 0 0 0-.75c-.04-.207-.073-.038-.073.375m138.122-.282c0 .029.243.273.541.542l.542.49-.49-.542c-.456-.505-.593-.618-.593-.49m-133.295 8.782c0 .32.034.452.076.291.042-.16.042-.423 0-.583-.042-.16-.076-.029-.076.292m-51.08.951c.206.039.543.039.75 0 .206-.04.037-.073-.375-.073-.413 0-.582.033-.375.073m142.787 2.555c-.07.114.056.135.365.06.639-.153.699-.233.177-.233-.239 0-.483.078-.542.173m52.921 8.91c.867.871 1.614 1.584 1.66 1.584.046 0-.626-.713-1.493-1.584-.868-.87-1.615-1.583-1.66-1.583-.046 0 .626.713 1.493 1.583m-91.78 8.75c0 .596.03.84.067.542a5.297 5.297 0 0 0 0-1.083c-.037-.298-.067-.055-.067.541m-67.803.834c.636.641 1.195 1.166 1.241 1.166.046 0-.438-.525-1.075-1.166-.636-.642-1.195-1.167-1.241-1.167-.046 0 .438.525 1.075 1.167m-18.959.784c.207.04.544.04.75 0 .207-.04.038-.072-.375-.072-.412 0-.581.032-.375.072m2.002 0c.208.04.508.039.667-.003.159-.042-.01-.074-.377-.073-.367.002-.497.036-.29.076m84.76 3.882c0 .596.03.84.067.542a5.297 5.297 0 0 0 0-1.083c-.037-.298-.067-.055-.067.541m37.572-.043a15.48 15.48 0 0 0 1.75 0c.481-.034.087-.062-.875-.062-.963 0-1.357.028-.875.062m-37.08 11.71c0 .412.033.581.072.375.04-.206.04-.544 0-.75-.039-.206-.072-.037-.072.375m-29.333 1.5c0 .412.032.581.072.375.04-.206.04-.544 0-.75-.04-.206-.072-.037-.072.375m33.863.875-.659.708.709-.658c.658-.613.785-.758.658-.758-.027 0-.345.318-.708.708m-40.117.247c.39.035 1.027.035 1.417 0 .389-.035.07-.064-.709-.064-.779 0-1.098.029-.708.064m-1.578 1.667c.438.035 1.113.034 1.5-.001.387-.034.028-.063-.797-.062-.825 0-1.141.029-.703.063m59.946 11.753c.691.736.84.868.84.743 0-.027-.356-.383-.791-.792l-.792-.743.743.792m70.58 25.166-.49.542.542-.49c.505-.456.618-.593.49-.593-.029 0-.273.243-.542.541m-44.912 6.25-.911.959.958-.911c.527-.501.959-.933.959-.959 0-.123-.16.021-1.006.911m12.216 8.328c.254.039.629.038.834-.002.205-.04-.003-.071-.461-.07-.458.002-.626.034-.373.072m-203.21 6.433c0 .029.243.272.541.541l.542.49-.49-.542c-.456-.505-.593-.618-.593-.489m29.708 10.229c.16.042.423.042.583 0 .161-.042.029-.076-.291-.076-.321 0-.452.034-.292.076"/><path fill="#8c8c8c" d="M196.297 58.956c.485.034 1.235.034 1.667 0 .432-.035.036-.062-.881-.062-.916.001-1.27.029-.786.062m5.745 4.159c.16.042.423.042.583 0 .16-.042.029-.076-.292-.076s-.452.034-.291.076m-4.329 1.674c.439.035 1.114.034 1.5-.001.387-.034.029-.063-.796-.062-.825 0-1.142.029-.704.063m24.454 4.628c.775.779 1.446 1.416 1.492 1.416.046 0-.551-.637-1.326-1.416-.775-.78-1.446-1.417-1.492-1.417-.046 0 .551.637 1.326 1.417m-.834-.334c.498.504.943.917.989.917.046 0-.324-.413-.822-.917-.498-.504-.943-.916-.989-.916-.045 0 .324.412.822.916m-2.666 3.667c.311.321.603.583.648.583.046 0-.171-.262-.482-.583-.311-.321-.603-.583-.648-.583-.046 0 .171.262.482.583M175.5 74.083c-.683.688-1.204 1.25-1.158 1.25.046 0 .642-.562 1.325-1.25.683-.687 1.204-1.25 1.158-1.25-.046 0-.642.563-1.325 1.25m-1.042 13.589c.207.083.375.241.375.35 0 .11.049.152.107.093.163-.162-.277-.616-.585-.604-.184.007-.15.059.103.161m57.419 2.114c.254.039.629.038.834-.002.205-.04-.003-.071-.461-.07-.458.002-.626.034-.373.072m10.34 2.881c0 .504.031.71.069.458a3.702 3.702 0 0 0 0-.917c-.038-.252-.069-.046-.069.459m23.529.541-1.163 1.209 1.209-1.163c1.122-1.079 1.284-1.254 1.162-1.254-.026 0-.569.544-1.208 1.208M166.879 95.5c0 .412.032.581.072.375.04-.206.04-.544 0-.75-.04-.206-.072-.038-.072.375m62.807 1.278a2.792 2.792 0 0 1-.127.5c-.084.237-.062.263.099.115.114-.105.171-.33.127-.5-.044-.17-.088-.222-.099-.115m7.195 1.139c.001.458.034.626.072.372a3.008 3.008 0 0 0-.002-.833c-.04-.205-.071.002-.07.461m-69.994.583c0 .596.03.84.067.542a5.307 5.307 0 0 0 0-1.084c-.037-.298-.067-.054-.067.542m58.158 3.833c0 .413.033.582.073.375a2.418 2.418 0 0 0 0-.75c-.04-.206-.073-.037-.073.375m23.178.332c.018.282.134.426.36.449.24.024.255.01.052-.05-.155-.047-.317-.249-.36-.449-.067-.306-.075-.298-.052.05m-19.181 2.085c.002.367.036.497.076.29.04-.208.038-.508-.003-.667-.042-.159-.075.01-.073.377m3.949 3.208-.574.625.625-.574c.581-.535.701-.676.574-.676-.028 0-.309.282-.625.625m33.749 6.917-.49.542.542-.49c.505-.456.618-.594.489-.594-.029 0-.272.244-.541.542m-12.105 9.572c.169.068.15.169-.083.445l-.302.358.375-.317c.449-.381.481-.604.083-.587-.19.009-.216.044-.073.101m-63.427 5.168c.161.042.423.042.584 0 .16-.042.029-.076-.292-.076s-.452.034-.292.076m3.923.175c.484.034 1.234.033 1.666-.001.433-.034.036-.062-.88-.061-.917 0-1.271.028-.786.062m3.244 3.329c.252.039.665.039.917 0 .252-.038.046-.069-.459-.069-.504 0-.71.031-.458.069m-3 .496c.16.042.423.042.583 0 .161-.042.029-.076-.291-.076-.321 0-.452.034-.292.076m12.333.008c.436.034 1.148.034 1.584 0 .435-.035.079-.063-.792-.063s-1.227.028-.792.063m-4 14.167c.527.033 1.39.033 1.917 0 .527-.033.096-.06-.958-.06-1.055 0-1.486.027-.959.06m-5.914.495c.207.039.507.038.666-.004.16-.042-.01-.074-.377-.072-.366.002-.497.036-.289.076m-3.752.83c.16.042.423.042.583 0 .16-.042.029-.076-.292-.076s-.452.034-.291.076m48.5 1.135c.002.367.036.497.076.29.04-.208.038-.508-.003-.667-.042-.159-.075.01-.073.377m-.159 3.25c0 .504.032.71.07.458a3.694 3.694 0 0 0 0-.916c-.038-.252-.07-.046-.07.458m-64.508 1.25c.002.367.036.497.076.29.04-.208.039-.508-.003-.667-.042-.159-.074.01-.073.377m-.823 1.167c.001.55.032.755.069.455.037-.3.036-.75-.002-1s-.068-.005-.067.545m65.153.583c0 .321.035.452.077.292a1.402 1.402 0 0 0 0-.584c-.042-.16-.077-.029-.077.292m-54.83 4.782c.16.041.423.041.583 0 .161-.042.029-.077-.291-.077-.321 0-.452.035-.292.077m.085 1.003c.208.039.508.038.667-.004.159-.042-.01-.074-.377-.072-.367.002-.497.036-.29.076m16.248-.003c.161.041.423.041.584 0 .16-.042.029-.077-.292-.077s-.452.035-.292.077m-11.25.172c.298.037.786.037 1.084 0 .298-.037.054-.067-.542-.067-.596 0-.84.03-.542.067m7.163 0c.296.036.821.037 1.167.001.346-.036.104-.066-.538-.067-.642-.001-.925.029-.629.066m42.084.879c0 .321.035.452.077.292.041-.16.041-.423 0-.583-.042-.161-.077-.03-.077.291m-52.833 1.834c0 .32.034.452.076.291.042-.16.042-.423 0-.583-.042-.16-.076-.029-.076.292m-1.82 8.583c.001.55.032.755.069.455a4.447 4.447 0 0 0-.002-1c-.038-.25-.068-.005-.067.545m-19.347-.083c0 .32.035.452.077.291.041-.16.041-.423 0-.583-.042-.16-.077-.029-.077.292m105.503-.385c.161.041.423.041.584 0 .16-.042.029-.077-.292-.077s-.452.035-.292.077M169.053 176c0 .596.031.84.068.542a5.307 5.307 0 0 0 0-1.084c-.037-.298-.068-.054-.068.542m18.677.833c0 1.054.027 1.486.06.959s.033-1.39 0-1.917c-.033-.527-.06-.096-.06.958m52.642-.5c0 .321.034.452.076.292.042-.16.042-.423 0-.583-.042-.161-.076-.03-.076.291m-53.32 1.084c.001.55.032.755.069.455.037-.3.036-.75-.002-1s-.068-.005-.067.545m41.487-.417c0 .321.034.452.076.292a1.37 1.37 0 0 0 0-.584c-.042-.16-.076-.029-.076.292m1.003.917c.002.366.036.497.076.289a1.83 1.83 0 0 0-.003-.666c-.042-.16-.075.01-.073.377m-60.489 1.75c0 .595.031.839.068.541a5.297 5.297 0 0 0 0-1.083c-.037-.298-.068-.054-.068.542m59.319-.167c0 .321.034.452.076.292a1.37 1.37 0 0 0 0-.584c-.042-.16-.076-.029-.076.292m-73.16 5c0 .412.033.581.072.375.04-.206.04-.544 0-.75-.039-.206-.072-.037-.072.375m-1.159 2.333c0 .596.031.84.068.542a5.297 5.297 0 0 0 0-1.083c-.037-.298-.068-.055-.068.541m5.364 2.667c.451.458.858.833.904.833.046 0-.286-.375-.738-.833-.451-.458-.858-.833-.904-.833-.046 0 .286.375.738.833m-5.208.083c.002.367.036.497.076.29a1.835 1.835 0 0 0-.004-.667c-.042-.159-.074.011-.072.377m4.624.5c.311.321.603.584.649.584.046 0-.171-.263-.482-.584-.311-.321-.603-.583-.649-.583-.046 0 .171.262.482.583m-4.615 2.334c.001.55.032.755.069.455.038-.3.037-.75-.001-1s-.069-.005-.068.545m11.496.833c.002.458.034.626.072.373a2.94 2.94 0 0 0-.002-.834c-.04-.205-.071.003-.07.461m-52.672 3.707c.71.031 1.873.031 2.583 0 .71-.031.129-.057-1.292-.057s-2.002.026-1.291.057m4.752-.006c.207.04.507.039.666-.003.16-.042-.01-.074-.377-.073-.366.002-.497.036-.289.076m53.248 2.299c.002.367.036.497.076.29.04-.208.038-.508-.003-.667-.042-.159-.075.01-.073.377m-8.25 3.701c.206.04.543.04.75 0 .206-.04.037-.072-.375-.072-.413 0-.582.032-.375.072m-21.292 4.308c0 .037.3.221.667.408.366.187.666.282.665.211-.001-.07-.301-.254-.667-.407-.366-.154-.665-.249-.665-.212m-58.421 1.949-1.329 1.375 1.375-1.329c1.277-1.235 1.451-1.421 1.329-1.421-.025 0-.643.619-1.375 1.375m114.966-.375c0 .413.033.582.073.375a2.418 2.418 0 0 0 0-.75c-.04-.206-.073-.037-.073.375m25.834 4.834c0 .412.032.581.072.375.04-.207.04-.544 0-.75-.04-.207-.072-.038-.072.375m1.338 3.5c0 .504.031.71.069.458a3.702 3.702 0 0 0 0-.917c-.038-.252-.069-.046-.069.459m-1.488 2.916c0 1.009.028 1.4.061.869.033-.53.033-1.355-.001-1.833-.033-.478-.06-.044-.06.964m-64.062.334c1.051 1.054 1.948 1.916 1.994 1.916.046 0-.776-.862-1.828-1.916-1.051-1.055-1.948-1.917-1.994-1.917-.046 0 .776.862 1.828 1.917M157.75 220c.358.367.688.667.734.667.046 0-.209-.3-.567-.667-.358-.367-.689-.667-.735-.667-.045 0 .21.3.568.667m-22.455-.379c.299.037.749.036 1-.002.25-.038.005-.068-.545-.067-.55.001-.755.032-.455.069m2.666 0c.3.037.75.036 1-.002.251-.038.006-.068-.544-.067-.55.001-.755.032-.456.069m121.081 2.17c.71.031 1.873.031 2.583 0 .71-.032.129-.057-1.292-.057s-2.002.025-1.291.057m-33.824 1.792c.001.55.032.755.069.456.038-.3.037-.75-.001-1-.038-.251-.069-.006-.068.544m38.824-.801c.16.041.423.041.583 0 .16-.042.029-.077-.292-.077s-.452.035-.291.077m-144.625 1.649-.5.43.541-.359c.298-.197.542-.39.542-.43 0-.125-.071-.081-.583.359m104.464 2.652c.001.459.034.626.072.373a3.008 3.008 0 0 0-.002-.833c-.04-.205-.071.002-.07.46m19.661 3.205c.343.036.906.036 1.25 0 .343-.036.062-.065-.625-.065-.688 0-.969.029-.625.065m-18 2.129c.002.366.036.497.076.289a1.83 1.83 0 0 0-.003-.666c-.042-.16-.075.01-.073.377m-1.333.833c.002.367.036.497.076.29a1.834 1.834 0 0 0-.004-.667c-.042-.159-.074.01-.072.377m-55.792.75c.636.642 1.195 1.167 1.241 1.167.046 0-.438-.525-1.075-1.167-.636-.642-1.195-1.167-1.241-1.167-.046 0 .438.525 1.075 1.167m26.622.167c0 .32.034.452.076.291.042-.16.042-.423 0-.583-.042-.16-.076-.029-.076.292m29.336 2.083c.002.367.036.497.076.29.04-.208.039-.508-.003-.667-.042-.159-.074.01-.073.377m106.028 7.417c0 1.695.024 2.389.055 1.541.03-.848.03-2.235 0-3.083-.031-.848-.055-.154-.055 1.542m-172.075 6.125-.911.958.958-.911c.527-.501.958-.932.958-.958 0-.124-.159.02-1.005.911m160.245 24.916-.49.542.542-.49c.505-.456.618-.593.49-.593-.029 0-.273.243-.542.541m-244.014 2.875c0 .825.028 1.184.063.797a10.87 10.87 0 0 0 .001-1.5c-.035-.438-.063-.122-.064.703m242.014-.875-.49.542.542-.49c.505-.456.618-.593.49-.593-.029 0-.273.243-.542.541m-29.281 13.743c.206.04.543.04.75 0 .206-.04.037-.072-.375-.072-.413 0-.582.032-.375.072m-37.667 4.167c.206.039.544.039.75 0 .206-.04.037-.073-.375-.073s-.581.033-.375.073m-59.125 6.965c.311.321.603.584.649.584.046 0-.171-.263-.482-.584-.311-.321-.603-.583-.649-.583-.046 0 .171.262.482.583m-62.667 2.5c.311.321.603.584.649.584.046 0-.171-.263-.482-.584-.311-.321-.603-.583-.649-.583-.046 0 .171.262.482.583m-17.625 3.032c.161.042.423.042.584 0 .16-.042.029-.076-.292-.076s-.452.034-.292.076m-6.416.169c.206.04.543.04.75 0 .206-.039.037-.072-.375-.072-.413 0-.582.033-.375.072m120.002.501c.207.039.507.038.666-.004.16-.042-.01-.074-.377-.072-.366.002-.497.036-.289.076m-5.745.172c.715.032 1.84.031 2.5 0 .661-.032.076-.057-1.299-.057s-1.915.026-1.201.057m-66.755 7.161c.207.04.507.038.666-.003.16-.042-.01-.075-.377-.073-.366.002-.497.036-.289.076m5.333.667c.207.039.507.038.667-.004.159-.042-.011-.074-.377-.072-.367.002-.497.036-.29.076m7.5 0c.207.039.507.038.667-.004.159-.042-.011-.074-.377-.072-.367.002-.497.036-.29.076m-4.414.171a10.87 10.87 0 0 0 1.5-.001c.387-.035.029-.063-.796-.063-.825.001-1.142.03-.704.064"/></g></svg>